<svg xmlns="http://www.w3.org/2000/svg" xmlns:xlink="http://www.w3.org/1999/xlink" viewBox="0 0 720 720"><defs><style>.cls-1{fill:none;}.cls-2{isolation:isolate;}.cls-3{fill:url(#linear-gradient);}.cls-4{fill:#ace83a;}.cls-5{fill:#fff;}.cls-6{fill:#c3c7c7;}.cls-7{clip-path:url(#clip-path);}.cls-8{clip-path:url(#clip-path-2);}.cls-11,.cls-9{mix-blend-mode:multiply;}.cls-10{fill:url(#linear-gradient-2);}.cls-11{fill:#2b1b42;opacity:0.3;}.cls-12{fill:url(#linear-gradient-3);}.cls-13{mix-blend-mode:overlay;opacity:0.5;}.cls-14{fill:url(#linear-gradient-4);}.cls-15{fill:url(#linear-gradient-5);}</style><linearGradient id="linear-gradient" x1="360" y1="720" x2="360" gradientUnits="userSpaceOnUse"><stop offset="0" stop-color="#6323d3"></stop><stop offset="0.16" stop-color="#7426d2"></stop><stop offset="0.51" stop-color="#942bd1"></stop><stop offset="0.8" stop-color="#a82ed0"></stop><stop offset="1" stop-color="#af2fd0"></stop></linearGradient><clipPath id="clip-path"><path class="cls-1" d="M463.83,453.72c-2.08-1.54-4.14-3.11-6.18-4.69-20-15.44-44-24.49-68.22-23.39q-14.69.66-29.43.71t-29.43-.71c-24.25-1.1-48.24,7.95-68.22,23.39-2,1.58-4.1,3.15-6.18,4.69-22.59,17.57-46.24,58.84-25.47,108.72,8.14,19.54,24.45,54.61,54.92,67.2h35c6.85-2.41,13.87-4.86,21.41-4.3,5.94.47,11.89.72,17.85.79h.26c6-.07,11.91-.32,17.85-.79,7.54-.56,14.56,1.89,21.41,4.3h35c30.47-12.59,46.78-47.66,54.92-67.2C510.07,512.56,486.42,471.29,463.83,453.72Z"></path></clipPath><clipPath id="clip-path-2"><path class="cls-1" d="M467.33,205.48V196.1c0-25.49-13.6-58.54-35.67-71.28h0a143.28,143.28,0,0,0-143.32,0h0c-22.07,12.74-35.67,45.79-35.67,71.28v9.38a35,35,0,0,0,17.49,30.3l73.56,42.47a32.54,32.54,0,0,0,32.56,0l73.56-42.47A35,35,0,0,0,467.33,205.48Z"></path></clipPath><linearGradient id="linear-gradient-2" x1="362.75" y1="679.48" x2="362.75" y2="773.33" gradientUnits="userSpaceOnUse"><stop offset="0" stop-color="#2b1b42"></stop><stop offset="0.27" stop-color="#1e132e"></stop><stop offset="0.77"></stop></linearGradient><linearGradient id="linear-gradient-3" x1="360.03" y1="358.84" x2="360.03" y2="457.72" xlink:href="#linear-gradient-2"></linearGradient><linearGradient id="linear-gradient-4" x1="303.49" y1="252.28" x2="303.49" y2="214.83" gradientUnits="userSpaceOnUse"><stop offset="0" stop-color="#fff"></stop><stop offset="0.06" stop-color="#fff" stop-opacity="0.91"></stop><stop offset="0.27" stop-color="#fff" stop-opacity="0.63"></stop><stop offset="0.46" stop-color="#fff" stop-opacity="0.41"></stop><stop offset="0.63" stop-color="#fff" stop-opacity="0.23"></stop><stop offset="0.78" stop-color="#fff" stop-opacity="0.11"></stop><stop offset="0.91" stop-color="#fff" stop-opacity="0.03"></stop><stop offset="1" stop-color="#fff" stop-opacity="0"></stop></linearGradient><linearGradient id="linear-gradient-5" x1="415.58" y1="252.28" x2="415.58" y2="214.83" xlink:href="#linear-gradient-4"></linearGradient><style>.accessory-16-cls-1{fill:url(#accessory-16-Безымянный_градиент_6);}.accessory-16-cls-2{fill:url(#accessory-16-Безымянный_градиент_6-3);}.accessory-16-cls-3{fill:url(#accessory-16-Безымянный_градиент_6-4);}.accessory-16-cls-4{fill:url(#accessory-16-Безымянный_градиент_6-5);}.accessory-16-cls-5{fill:url(#accessory-16-Безымянный_градиент_6-6);}.accessory-16-cls-6{fill:url(#accessory-16-Безымянный_градиент_6-7);}.accessory-16-cls-7{fill:url(#accessory-16-Безымянный_градиент_6-8);}.accessory-16-cls-8{fill:url(#accessory-16-Безымянный_градиент_6-9);}.accessory-16-cls-9{fill:url(#accessory-16-Безымянный_градиент_6-10);}.accessory-16-cls-10{fill:url(#accessory-16-Безымянный_градиент_6-11);}.accessory-16-cls-11{fill:url(#accessory-16-Безымянный_градиент_6-12);}.accessory-16-cls-12{fill:url(#accessory-16-Безымянный_градиент_6-13);}.accessory-16-cls-13{fill:url(#accessory-16-Безымянный_градиент_6-14);}.accessory-16-cls-14{fill:url(#accessory-16-Безымянный_градиент_6-15);}.accessory-16-cls-15{fill:url(#accessory-16-Безымянный_градиент_6-16);}.accessory-16-cls-16{fill:url(#accessory-16-Безымянный_градиент_6-17);}.accessory-16-cls-17{fill:url(#accessory-16-Безымянный_градиент_6-18);}.accessory-16-cls-18{fill:url(#accessory-16-Безымянный_градиент_6-19);}.accessory-16-cls-19{fill:url(#accessory-16-Безымянный_градиент_6-20);}.accessory-16-cls-20{fill:url(#accessory-16-Безымянный_градиент_6-21);}.accessory-16-cls-21{clip-path:url(#accessory-16-clip-path);}.accessory-16-cls-22{fill:#00cf3e;}.accessory-16-cls-23{fill:#fff;opacity:0.01;}</style><linearGradient id="accessory-16-Безымянный_градиент_6" x1="361.53" y1="661.28" x2="361.53" y2="331.11" gradientUnits="userSpaceOnUse"><stop offset="0.24" stop-color="#00ec47"></stop><stop offset="1" stop-color="#fff12e"></stop></linearGradient><linearGradient id="accessory-16-Безымянный_градиент_6-3" x1="240.23" y1="661.28" x2="240.23" y2="331.11" xlink:href="#accessory-16-Безымянный_градиент_6"></linearGradient><linearGradient id="accessory-16-Безымянный_градиент_6-4" x1="242.43" y1="661.28" x2="242.43" y2="331.11" xlink:href="#accessory-16-Безымянный_градиент_6"></linearGradient><linearGradient id="accessory-16-Безымянный_градиент_6-5" x1="243.8" y1="661.28" x2="243.8" y2="331.11" xlink:href="#accessory-16-Безымянный_градиент_6"></linearGradient><linearGradient id="accessory-16-Безымянный_градиент_6-6" x1="259.25" y1="661.28" x2="259.25" y2="331.11" xlink:href="#accessory-16-Безымянный_градиент_6"></linearGradient><linearGradient id="accessory-16-Безымянный_градиент_6-7" x1="265.51" y1="661.28" x2="265.51" y2="331.11" xlink:href="#accessory-16-Безымянный_градиент_6"></linearGradient><linearGradient id="accessory-16-Безымянный_градиент_6-8" x1="280.99" y1="661.28" x2="280.99" y2="331.11" xlink:href="#accessory-16-Безымянный_градиент_6"></linearGradient><linearGradient id="accessory-16-Безымянный_градиент_6-9" x1="296.12" y1="661.28" x2="296.12" y2="331.11" xlink:href="#accessory-16-Безымянный_градиент_6"></linearGradient><linearGradient id="accessory-16-Безымянный_градиент_6-10" x1="319.33" y1="661.28" x2="319.33" y2="331.11" xlink:href="#accessory-16-Безымянный_градиент_6"></linearGradient><linearGradient id="accessory-16-Безымянный_градиент_6-11" x1="339.24" y1="661.28" x2="339.24" y2="331.11" xlink:href="#accessory-16-Безымянный_градиент_6"></linearGradient><linearGradient id="accessory-16-Безымянный_градиент_6-12" x1="362.68" y1="661.28" x2="362.68" y2="331.11" xlink:href="#accessory-16-Безымянный_градиент_6"></linearGradient><linearGradient id="accessory-16-Безымянный_градиент_6-13" x1="384.04" y1="661.28" x2="384.04" y2="331.11" xlink:href="#accessory-16-Безымянный_градиент_6"></linearGradient><linearGradient id="accessory-16-Безымянный_градиент_6-14" x1="410.47" y1="661.28" x2="410.47" y2="331.11" xlink:href="#accessory-16-Безымянный_градиент_6"></linearGradient><linearGradient id="accessory-16-Безымянный_градиент_6-15" x1="428.27" y1="661.28" x2="428.27" y2="331.11" xlink:href="#accessory-16-Безымянный_градиент_6"></linearGradient><linearGradient id="accessory-16-Безымянный_градиент_6-16" x1="443.14" y1="661.28" x2="443.14" y2="331.11" xlink:href="#accessory-16-Безымянный_градиент_6"></linearGradient><linearGradient id="accessory-16-Безымянный_градиент_6-17" x1="458.72" y1="661.28" x2="458.72" y2="331.11" xlink:href="#accessory-16-Безымянный_градиент_6"></linearGradient><linearGradient id="accessory-16-Безымянный_градиент_6-18" x1="470.91" y1="661.28" x2="470.91" y2="331.11" xlink:href="#accessory-16-Безымянный_градиент_6"></linearGradient><linearGradient id="accessory-16-Безымянный_градиент_6-19" x1="470.21" y1="661.28" x2="470.21" y2="331.11" xlink:href="#accessory-16-Безымянный_градиент_6"></linearGradient><linearGradient id="accessory-16-Безымянный_градиент_6-20" x1="474.66" y1="661.28" x2="474.66" y2="331.11" xlink:href="#accessory-16-Безымянный_градиент_6"></linearGradient><linearGradient id="accessory-16-Безымянный_градиент_6-21" x1="477.88" y1="661.28" x2="477.88" y2="331.11" xlink:href="#accessory-16-Безымянный_градиент_6"></linearGradient><clipPath id="accessory-16-clip-path"><path class="accessory-16-cls-1" d="M320.11,345.42c-8.63-2.94-30.85,16-31.16,15.95l-10.16,3.17c-2.51.58-12.1,8.12-13.8,9.4-10.66,8.06-22,18.38-20.76,37,1.48,23.27,8.73,59.44,16.29,82.94a166.13,166.13,0,0,0,17.73,37.86c16.15,25.53,47.45,70.13,78.74,87.35a8.61,8.61,0,0,0,9.92-1.1c13.93-12.47,56.88-50.21,81.4-96.75,3.11-5.89,16.12-34.94,17.87-41.36,5.71-20.84,17.09-55.37,11-78.64-.13-.5-13.88-26.92-24.41-36.38-1.23-1.1-13.79-6.36-15.32-7,0,0-18.66-15.51-28.2-14.57-7.38.74-11.61,9.22-22.89,9.52-19.13.51-29.32.47-46.42-.42C331.38,352,320.61,345.58,320.11,345.42Z"></path></clipPath><style>.background-188-cls-1{fill:url(#background-188-radial-gradient);}.background-188-cls-2{fill:#1d1130;opacity:0.5;}.background-188-cls-3{fill:#fff;opacity:0.01;}</style><radialGradient id="background-188-radial-gradient" cx="358.33" cy="369" r="563.45" gradientUnits="userSpaceOnUse"><stop offset="0" stop-color="#382459"></stop><stop offset="0.42" stop-color="#301f4b"></stop><stop offset="0.48" stop-color="#2e1e49"></stop><stop offset="1" stop-color="#1d1130"></stop></radialGradient><style>.clothes-17-cls-1{fill:none;}.clothes-17-cls-2{fill:#fff12e;}.clothes-17-cls-3{clip-path:url(#clothes-17-clip-path);}.clothes-17-cls-4{fill:url(#clothes-17-linear-gradient);}.clothes-17-cls-5{fill:url(#clothes-17-linear-gradient-2);}.clothes-17-cls-6{fill:url(#clothes-17-linear-gradient-3);}.clothes-17-cls-7{fill:url(#clothes-17-linear-gradient-4);}.clothes-17-cls-8{fill:url(#clothes-17-linear-gradient-5);}.clothes-17-cls-9{fill:url(#clothes-17-linear-gradient-6);}.clothes-17-cls-10{fill:url(#clothes-17-linear-gradient-7);}.clothes-17-cls-11{fill:url(#clothes-17-linear-gradient-8);}.clothes-17-cls-12{fill:url(#clothes-17-linear-gradient-9);}.clothes-17-cls-13{fill:url(#clothes-17-linear-gradient-10);}.clothes-17-cls-14{fill:url(#clothes-17-linear-gradient-11);}.clothes-17-cls-15{fill:url(#clothes-17-linear-gradient-12);}.clothes-17-cls-16{fill:url(#clothes-17-linear-gradient-13);}.clothes-17-cls-17{fill:url(#clothes-17-linear-gradient-14);}.clothes-17-cls-18{fill:url(#clothes-17-linear-gradient-15);}.clothes-17-cls-19{fill:url(#clothes-17-linear-gradient-16);}.clothes-17-cls-20{fill:url(#clothes-17-linear-gradient-17);}.clothes-17-cls-21{fill:url(#clothes-17-linear-gradient-18);}.clothes-17-cls-22{fill:url(#clothes-17-linear-gradient-19);}.clothes-17-cls-23{fill:url(#clothes-17-linear-gradient-20);}.clothes-17-cls-24{fill:url(#clothes-17-linear-gradient-21);}.clothes-17-cls-25{fill:url(#clothes-17-linear-gradient-22);}.clothes-17-cls-26{fill:url(#clothes-17-linear-gradient-23);}.clothes-17-cls-27{fill:url(#clothes-17-linear-gradient-24);}.clothes-17-cls-28{fill:url(#clothes-17-linear-gradient-25);}.clothes-17-cls-29{fill:url(#clothes-17-linear-gradient-26);}.clothes-17-cls-30{fill:url(#clothes-17-linear-gradient-27);}.clothes-17-cls-31{fill:url(#clothes-17-linear-gradient-28);}.clothes-17-cls-32{fill:url(#clothes-17-linear-gradient-29);}.clothes-17-cls-33{fill:url(#clothes-17-linear-gradient-30);}.clothes-17-cls-34{fill:url(#clothes-17-linear-gradient-31);}.clothes-17-cls-35{fill:url(#clothes-17-linear-gradient-32);}.clothes-17-cls-36{fill:url(#clothes-17-linear-gradient-33);}.clothes-17-cls-37{fill:url(#clothes-17-linear-gradient-34);}.clothes-17-cls-38{fill:url(#clothes-17-linear-gradient-35);}.clothes-17-cls-39{fill:url(#clothes-17-linear-gradient-36);}.clothes-17-cls-40{fill:url(#clothes-17-linear-gradient-37);}.clothes-17-cls-41{fill:url(#clothes-17-linear-gradient-38);}.clothes-17-cls-42{fill:url(#clothes-17-linear-gradient-39);}.clothes-17-cls-43{fill:url(#clothes-17-linear-gradient-40);}.clothes-17-cls-44{fill:url(#clothes-17-linear-gradient-41);}.clothes-17-cls-45{fill:url(#clothes-17-linear-gradient-42);}.clothes-17-cls-46{fill:url(#clothes-17-linear-gradient-43);}.clothes-17-cls-47{fill:url(#clothes-17-linear-gradient-44);}.clothes-17-cls-48{fill:url(#clothes-17-linear-gradient-45);}.clothes-17-cls-49{fill:url(#clothes-17-linear-gradient-46);}.clothes-17-cls-50{fill:url(#clothes-17-linear-gradient-47);}.clothes-17-cls-51{fill:url(#clothes-17-linear-gradient-48);}.clothes-17-cls-52{fill:url(#clothes-17-linear-gradient-49);}.clothes-17-cls-53{fill:url(#clothes-17-linear-gradient-50);}.clothes-17-cls-54{fill:url(#clothes-17-linear-gradient-51);}.clothes-17-cls-55{fill:url(#clothes-17-linear-gradient-52);}.clothes-17-cls-56{fill:url(#clothes-17-linear-gradient-53);}.clothes-17-cls-57{fill:url(#clothes-17-linear-gradient-54);}.clothes-17-cls-58{fill:url(#clothes-17-linear-gradient-55);}.clothes-17-cls-59{fill:url(#clothes-17-linear-gradient-56);}.clothes-17-cls-60{fill:url(#clothes-17-linear-gradient-57);}.clothes-17-cls-61{opacity:0.6;}.clothes-17-cls-62{fill:#d18800;}.clothes-17-cls-63{fill:#1e7d8a;}.clothes-17-cls-64{fill:#fff;}</style><clipPath id="clothes-17-clip-path"><path class="clothes-17-cls-1" d="M601.19,623.7s-21.14-178-87-202.42c-17.08-6.33-59.36-12.45-77.52-14.89l-10.27-3c-5.77,2.27-69.33,15.42-133.95,0h0l-13,3.66c-20.25,2.82-56,8.35-71.39,14.05-65.86,24.42-87,202.42-87,202.42l93.46,16.09,9-38.85-5.61,319.41a3.1,3.1,0,0,0,3.09,3.1l280.33.46a3.09,3.09,0,0,0,3.09-3.09L497.22,594.2l10.52,45.59Z"></path></clipPath><linearGradient id="clothes-17-linear-gradient" x1="530.93" y1="372.34" x2="526.93" y2="908.34" gradientUnits="userSpaceOnUse"><stop offset="0" stop-color="#20cbe6"></stop><stop offset="0.1" stop-color="#2fd3ea"></stop><stop offset="0.36" stop-color="#53e6f3"></stop><stop offset="0.61" stop-color="#6ef4fa"></stop><stop offset="0.83" stop-color="#7dfcfe"></stop><stop offset="1" stop-color="#83ffff"></stop></linearGradient><linearGradient id="clothes-17-linear-gradient-2" x1="490.1" y1="372.04" x2="486.1" y2="908.04" xlink:href="#clothes-17-linear-gradient"></linearGradient><linearGradient id="clothes-17-linear-gradient-3" x1="492.63" y1="372.06" x2="488.63" y2="908.06" xlink:href="#clothes-17-linear-gradient"></linearGradient><linearGradient id="clothes-17-linear-gradient-4" x1="487.57" y1="372.02" x2="483.57" y2="908.02" xlink:href="#clothes-17-linear-gradient"></linearGradient><linearGradient id="clothes-17-linear-gradient-5" x1="516.6" y1="372.24" x2="512.6" y2="908.24" xlink:href="#clothes-17-linear-gradient"></linearGradient><linearGradient id="clothes-17-linear-gradient-6" x1="519.42" y1="372.26" x2="515.42" y2="908.26" xlink:href="#clothes-17-linear-gradient"></linearGradient><linearGradient id="clothes-17-linear-gradient-7" x1="602.59" y1="372.88" x2="598.59" y2="908.88" xlink:href="#clothes-17-linear-gradient"></linearGradient><linearGradient id="clothes-17-linear-gradient-8" x1="603.36" y1="372.88" x2="599.36" y2="908.88" xlink:href="#clothes-17-linear-gradient"></linearGradient><linearGradient id="clothes-17-linear-gradient-9" x1="436.83" y1="371.64" x2="432.83" y2="907.64" xlink:href="#clothes-17-linear-gradient"></linearGradient><linearGradient id="clothes-17-linear-gradient-10" x1="438.46" y1="371.65" x2="434.46" y2="907.65" xlink:href="#clothes-17-linear-gradient"></linearGradient><linearGradient id="clothes-17-linear-gradient-11" x1="608.29" y1="372.92" x2="604.29" y2="908.92" xlink:href="#clothes-17-linear-gradient"></linearGradient><linearGradient id="clothes-17-linear-gradient-12" x1="388.31" y1="371.28" x2="384.31" y2="907.28" xlink:href="#clothes-17-linear-gradient"></linearGradient><linearGradient id="clothes-17-linear-gradient-13" x1="506.32" y1="372.16" x2="502.32" y2="908.16" xlink:href="#clothes-17-linear-gradient"></linearGradient><linearGradient id="clothes-17-linear-gradient-14" x1="504.56" y1="372.15" x2="500.56" y2="908.15" xlink:href="#clothes-17-linear-gradient"></linearGradient><linearGradient id="clothes-17-linear-gradient-15" x1="618.96" y1="373" x2="614.96" y2="909" xlink:href="#clothes-17-linear-gradient"></linearGradient><linearGradient id="clothes-17-linear-gradient-16" x1="357.9" y1="371.05" x2="353.9" y2="907.05" xlink:href="#clothes-17-linear-gradient"></linearGradient><linearGradient id="clothes-17-linear-gradient-17" x1="356.78" y1="371.04" x2="352.78" y2="907.04" xlink:href="#clothes-17-linear-gradient"></linearGradient><linearGradient id="clothes-17-linear-gradient-18" x1="435.02" y1="371.63" x2="431.02" y2="907.63" xlink:href="#clothes-17-linear-gradient"></linearGradient><linearGradient id="clothes-17-linear-gradient-19" x1="466.24" y1="371.86" x2="462.24" y2="907.86" xlink:href="#clothes-17-linear-gradient"></linearGradient><linearGradient id="clothes-17-linear-gradient-20" x1="465.08" y1="371.85" x2="461.08" y2="907.85" xlink:href="#clothes-17-linear-gradient"></linearGradient><linearGradient id="clothes-17-linear-gradient-21" x1="593.27" y1="372.81" x2="589.27" y2="908.81" xlink:href="#clothes-17-linear-gradient"></linearGradient><linearGradient id="clothes-17-linear-gradient-22" x1="591.46" y1="372.8" x2="587.46" y2="908.8" xlink:href="#clothes-17-linear-gradient"></linearGradient><linearGradient id="clothes-17-linear-gradient-23" x1="595.86" y1="372.83" x2="591.86" y2="908.83" xlink:href="#clothes-17-linear-gradient"></linearGradient><linearGradient id="clothes-17-linear-gradient-24" x1="596.49" y1="372.83" x2="592.49" y2="908.83" xlink:href="#clothes-17-linear-gradient"></linearGradient><linearGradient id="clothes-17-linear-gradient-25" x1="605.57" y1="372.9" x2="601.57" y2="908.9" xlink:href="#clothes-17-linear-gradient"></linearGradient><linearGradient id="clothes-17-linear-gradient-26" x1="315.8" y1="370.74" x2="311.8" y2="906.74" xlink:href="#clothes-17-linear-gradient"></linearGradient><linearGradient id="clothes-17-linear-gradient-27" x1="358.23" y1="371.05" x2="354.23" y2="907.05" xlink:href="#clothes-17-linear-gradient"></linearGradient><linearGradient id="clothes-17-linear-gradient-28" x1="426.16" y1="371.56" x2="422.16" y2="907.56" xlink:href="#clothes-17-linear-gradient"></linearGradient><linearGradient id="clothes-17-linear-gradient-29" x1="426.23" y1="371.56" x2="422.23" y2="907.56" xlink:href="#clothes-17-linear-gradient"></linearGradient><linearGradient id="clothes-17-linear-gradient-30" x1="481.23" y1="371.97" x2="477.23" y2="907.97" xlink:href="#clothes-17-linear-gradient"></linearGradient><linearGradient id="clothes-17-linear-gradient-31" x1="481.96" y1="371.98" x2="477.96" y2="907.98" xlink:href="#clothes-17-linear-gradient"></linearGradient><linearGradient id="clothes-17-linear-gradient-32" x1="479.18" y1="371.96" x2="475.18" y2="907.96" xlink:href="#clothes-17-linear-gradient"></linearGradient><linearGradient id="clothes-17-linear-gradient-33" x1="493.38" y1="372.06" x2="489.38" y2="908.06" xlink:href="#clothes-17-linear-gradient"></linearGradient><linearGradient id="clothes-17-linear-gradient-34" x1="475.27" y1="371.93" x2="471.27" y2="907.93" xlink:href="#clothes-17-linear-gradient"></linearGradient><linearGradient id="clothes-17-linear-gradient-35" x1="504.32" y1="372.15" x2="500.32" y2="908.15" xlink:href="#clothes-17-linear-gradient"></linearGradient><linearGradient id="clothes-17-linear-gradient-36" x1="504.19" y1="372.14" x2="500.19" y2="908.14" xlink:href="#clothes-17-linear-gradient"></linearGradient><linearGradient id="clothes-17-linear-gradient-37" x1="484.3" y1="372" x2="480.3" y2="908" xlink:href="#clothes-17-linear-gradient"></linearGradient><linearGradient id="clothes-17-linear-gradient-38" x1="522.27" y1="372.28" x2="518.27" y2="908.28" xlink:href="#clothes-17-linear-gradient"></linearGradient><linearGradient id="clothes-17-linear-gradient-39" x1="523.04" y1="372.28" x2="519.04" y2="908.28" xlink:href="#clothes-17-linear-gradient"></linearGradient><linearGradient id="clothes-17-linear-gradient-40" x1="558.63" y1="372.55" x2="554.63" y2="908.55" xlink:href="#clothes-17-linear-gradient"></linearGradient><linearGradient id="clothes-17-linear-gradient-41" x1="563.62" y1="372.59" x2="559.62" y2="908.59" xlink:href="#clothes-17-linear-gradient"></linearGradient><linearGradient id="clothes-17-linear-gradient-42" x1="603.42" y1="372.88" x2="599.42" y2="908.88" xlink:href="#clothes-17-linear-gradient"></linearGradient><linearGradient id="clothes-17-linear-gradient-43" x1="604.27" y1="372.89" x2="600.27" y2="908.89" xlink:href="#clothes-17-linear-gradient"></linearGradient><linearGradient id="clothes-17-linear-gradient-44" x1="617.3" y1="372.99" x2="613.3" y2="908.99" xlink:href="#clothes-17-linear-gradient"></linearGradient><linearGradient id="clothes-17-linear-gradient-45" x1="617.21" y1="372.99" x2="613.21" y2="908.99" xlink:href="#clothes-17-linear-gradient"></linearGradient><linearGradient id="clothes-17-linear-gradient-46" x1="255.16" y1="370.29" x2="251.16" y2="906.29" xlink:href="#clothes-17-linear-gradient"></linearGradient><linearGradient id="clothes-17-linear-gradient-47" x1="295.12" y1="370.58" x2="291.12" y2="906.58" xlink:href="#clothes-17-linear-gradient"></linearGradient><linearGradient id="clothes-17-linear-gradient-48" x1="183.14" y1="369.75" x2="179.14" y2="905.75" xlink:href="#clothes-17-linear-gradient"></linearGradient><linearGradient id="clothes-17-linear-gradient-49" x1="262.59" y1="370.34" x2="258.59" y2="906.34" xlink:href="#clothes-17-linear-gradient"></linearGradient><linearGradient id="clothes-17-linear-gradient-50" x1="237.05" y1="370.15" x2="233.05" y2="906.15" xlink:href="#clothes-17-linear-gradient"></linearGradient><linearGradient id="clothes-17-linear-gradient-51" x1="296.24" y1="370.59" x2="292.24" y2="906.59" xlink:href="#clothes-17-linear-gradient"></linearGradient><linearGradient id="clothes-17-linear-gradient-52" x1="301.29" y1="370.63" x2="297.29" y2="906.63" xlink:href="#clothes-17-linear-gradient"></linearGradient><linearGradient id="clothes-17-linear-gradient-53" x1="285.88" y1="370.52" x2="284.51" y2="554.34" xlink:href="#clothes-17-linear-gradient"></linearGradient><linearGradient id="clothes-17-linear-gradient-54" x1="285.86" y1="370.51" x2="281.86" y2="906.51" xlink:href="#clothes-17-linear-gradient"></linearGradient><linearGradient id="clothes-17-linear-gradient-55" x1="285.53" y1="370.51" x2="281.53" y2="906.51" xlink:href="#clothes-17-linear-gradient"></linearGradient><linearGradient id="clothes-17-linear-gradient-56" x1="259.42" y1="370.32" x2="255.42" y2="906.32" xlink:href="#clothes-17-linear-gradient"></linearGradient><linearGradient id="clothes-17-linear-gradient-57" x1="389.66" y1="371.29" x2="385.66" y2="907.29" xlink:href="#clothes-17-linear-gradient"></linearGradient><style>.glasses-161-cls-1{fill:url(#glasses-161-Безымянный_градиент_2);}.glasses-161-cls-2{fill:#7aff76;}.glasses-161-cls-3{fill:#fff;opacity:0.01;}</style><linearGradient id="glasses-161-Безымянный_градиент_2" x1="362.11" y1="270.71" x2="359.7" y2="168.32" gradientUnits="userSpaceOnUse"><stop offset="0.15" stop-color="#f214b8" stop-opacity="0.8"></stop><stop offset="0.23" stop-color="#d917b9" stop-opacity="0.8"></stop><stop offset="0.41" stop-color="#971dbb" stop-opacity="0.8"></stop><stop offset="0.53" stop-color="#6522bc" stop-opacity="0.8"></stop><stop offset="0.84" stop-color="#291163"></stop><stop offset="1" stop-color="#431993"></stop></linearGradient><style>.hairstyle-192-cls-1{fill:none;}.hairstyle-192-cls-2{fill:#fff;opacity:0.01;}.hairstyle-192-cls-3{fill:url(#hairstyle-192-linear-gradient);}.hairstyle-192-cls-4{fill:url(#hairstyle-192-linear-gradient-2);}.hairstyle-192-cls-5{fill:url(#hairstyle-192-linear-gradient-3);}.hairstyle-192-cls-6{fill:#fff696;}.hairstyle-192-cls-7{clip-path:url(#hairstyle-192-clip-path);}</style><linearGradient id="hairstyle-192-linear-gradient" x1="305.96" y1="-59.38" x2="305.96" y2="299.05" gradientUnits="userSpaceOnUse"><stop offset="0" stop-color="#ffc6a3"></stop><stop offset="0.19" stop-color="#fff080"></stop><stop offset="0.59" stop-color="#ffdd45"></stop><stop offset="0.77" stop-color="#e6b520"></stop><stop offset="0.91" stop-color="#d79b09"></stop><stop offset="1" stop-color="#d19200"></stop></linearGradient><linearGradient id="hairstyle-192-linear-gradient-2" x1="414.53" y1="-59.38" x2="414.53" y2="299.05" xlink:href="#hairstyle-192-linear-gradient"></linearGradient><linearGradient id="hairstyle-192-linear-gradient-3" x1="360.35" y1="-59.38" x2="360.35" y2="299.05" xlink:href="#hairstyle-192-linear-gradient"></linearGradient><clipPath id="hairstyle-192-clip-path"><path class="hairstyle-192-cls-1" d="M469.62,204.53C463.11,141.71,416.88,93,360.79,93S258.47,141.71,252,204.53Z"></path></clipPath><style>.hat-253-cls-1{fill:none;}.hat-253-cls-2{fill:#0f1c2c;}.hat-253-cls-3{fill:url(#hat-253-Новый_образец_градиента_6);}.hat-253-cls-4{fill:url(#hat-253-Безымянный_градиент_16);}.hat-253-cls-5{fill:url(#hat-253-Безымянный_градиент_16-2);}.hat-253-cls-6{opacity:0.3;}.hat-253-cls-7{fill:#3470b2;}</style><linearGradient id="hat-253-Новый_образец_градиента_6" x1="368.05" y1="421.64" x2="368.05" y2="68.72" gradientUnits="userSpaceOnUse"><stop offset="0" stop-color="#5e7b9f"></stop><stop offset="0.41" stop-color="#2d4462"></stop><stop offset="0.72" stop-color="#1b324f"></stop><stop offset="1" stop-color="#0f1c2c"></stop></linearGradient><linearGradient id="hat-253-Безымянный_градиент_16" x1="362.05" y1="-142.11" x2="362.05" y2="828.2" gradientUnits="userSpaceOnUse"><stop offset="0" stop-color="#5e7b9f"></stop><stop offset="0.36" stop-color="#2d4462"></stop><stop offset="0.72" stop-color="#1b324f"></stop><stop offset="1" stop-color="#0f1c2c"></stop></linearGradient><linearGradient id="hat-253-Безымянный_градиент_16-2" x1="359.14" y1="-145.56" x2="359.14" y2="830.68" xlink:href="#hat-253-Безымянный_градиент_16"></linearGradient><style>.makeup-226-cls-1{fill:#2e3cff;}.makeup-226-cls-2{fill:url(#makeup-226-Безымянный_градиент_63);}.makeup-226-cls-3{fill:#fff;opacity:0.01;}</style><linearGradient id="makeup-226-Безымянный_градиент_63" x1="385.31" y1="523.44" x2="447.78" y2="502.01" gradientTransform="matrix(1.01, -0.2, 0.12, 0.63, -48.14, 23.59)" gradientUnits="userSpaceOnUse"><stop offset="0" stop-color="#fff"></stop><stop offset="0.07" stop-color="#f7feff"></stop><stop offset="0.17" stop-color="#e3fdfe"></stop><stop offset="0.29" stop-color="#c1fafd"></stop><stop offset="0.43" stop-color="#92f7fc"></stop><stop offset="0.55" stop-color="#62f3fb"></stop><stop offset="0.68" stop-color="#50e9fc"></stop><stop offset="0.94" stop-color="#23cdfe"></stop><stop offset="1" stop-color="#18c7ff"></stop></linearGradient><style>.outerwear-149-cls-1{fill:#1b8547;}.outerwear-149-cls-2{fill:#16663a;}.outerwear-149-cls-3{fill:url(#outerwear-149-linear-gradient);}.outerwear-149-cls-4{fill:#29e060;}.outerwear-149-cls-5{fill:#63ff5e;}.outerwear-149-cls-6{fill:#fff;}.outerwear-149-cls-7{fill:url(#outerwear-149-linear-gradient-2);}.outerwear-149-cls-8{fill:url(#outerwear-149-linear-gradient-3);}.outerwear-149-cls-9{fill:#fab6e1;}.outerwear-149-cls-10{fill:#1c7eff;}.outerwear-149-cls-11{fill:#f0b237;}.outerwear-149-cls-12{fill:none;stroke:#1e27a8;stroke-linecap:round;stroke-linejoin:round;stroke-width:3px;opacity:0.6;}</style><linearGradient id="outerwear-149-linear-gradient" x1="360.8" y1="1234.63" x2="360.8" y2="359.67" gradientUnits="userSpaceOnUse"><stop offset="0" stop-color="#242fc9"></stop><stop offset="0.06" stop-color="#2631d2"></stop><stop offset="0.16" stop-color="#2a37ea"></stop><stop offset="0.23" stop-color="#2e3cff"></stop><stop offset="0.41" stop-color="#2b45ff"></stop><stop offset="0.7" stop-color="#255eff"></stop><stop offset="0.99" stop-color="#1c7eff"></stop></linearGradient><linearGradient id="outerwear-149-linear-gradient-2" x1="169.64" y1="894.04" x2="153.3" y2="485.53" xlink:href="#outerwear-149-linear-gradient"></linearGradient><linearGradient id="outerwear-149-linear-gradient-3" x1="540.77" y1="886.83" x2="575.1" y2="475.92" xlink:href="#outerwear-149-linear-gradient"></linearGradient></defs><g class="cls-2"><g id="background"><rect class="background-188-cls-1" width="720" height="720"></rect><rect class="background-188-cls-2" width="720" height="720"></rect></g><g id="pet"><rect class="cls-1" x="666.66" y="380" width="1" height="1"></rect></g><g id="hair_back" style="opacity: 0;"><rect class="hairstyle-192-cls-2" x="2.64" y="716" width="1" height="1"></rect></g><g id="outerwear_back"><path class="outerwear-149-cls-1" d="M486.21,889.05,238.3,892.71c-9.46-19.77-16.83-28-15.4-37.24l24.88-406.21c1.12-7.33,38.81-66.57,46.32-66.57H425.44c6.8,0,48.24,56,50.08,62.48L490.45,800C493.14,809.41,496.12,868.8,486.21,889.05Z"></path><path class="outerwear-149-cls-2" d="M486.21,889.7l-247.91,3c-9.46-19.81-16.83-26.59-15.4-34.16l56.17-377.9c1.13-6,7.52-10.46,15-10.46H425.44c6.8,0,12.78,3.67,14.62,9l60.39,374.88C503.14,861.79,496.12,869.5,486.21,889.7Z"></path></g><g id="body_color"><rect class="cls-4" x="348.79" y="623" width="24" height="120" style="fill: rgb(72, 167, 234);"></rect><polygon class="cls-4" points="351.79 345 351.79 346.94 351.79 363.77 351.79 363.77 351.79 403.41 351.79 403.56 351.79 403.56 351.79 425.57 351.79 426.86 351.79 427 368.92 427 368.92 403.56 368.92 403.56 368.92 403.41 368.92 360.12 368.92 360.12 368.92 346.94 368.92 345 351.79 345" style="fill: rgb(72, 167, 234);"></polygon><path class="cls-4" d="M575,677.83a78.31,78.31,0,0,1-.55-15.82q.18-2.75.55-5.49c.6-4.4-1.47-8.74-4.75-9.64a13.32,13.32,0,0,0-1.5-.31,12.45,12.45,0,0,0-5.18.31,5.48,5.48,0,0,0-2.3,1.36,9.91,9.91,0,0,0-2.45,8.28c.13.94.24,1.87.33,2.81a78.58,78.58,0,0,1-.22,17.61c0,.3-.07.59-.11.89-.6,4.4,1.48,8.73,4.75,9.63a12.23,12.23,0,0,0,6.68,0c3.06-.84,5.07-4.67,4.84-8.76Q575.08,678.26,575,677.83Z" style="fill: rgb(72, 167, 234);"></path><path class="cls-4" d="M160.76,677l.29,0a79.25,79.25,0,0,1-.55-12.78A78.32,78.32,0,0,0,160.76,677Z" style="fill: rgb(72, 167, 234);"></path><path class="cls-4" d="M145.56,671.43c-.11,2.14-.29,4.27-.58,6.4q-.06.43-.09.87h.1C145.29,676.27,145.49,673.85,145.56,671.43Z" style="fill: rgb(72, 167, 234);"></path><path class="cls-4" d="M160.5,664.16c.06-1,.14-2,.24-3,.06-.62.14-1.24.21-1.86l-.12,0Q160.59,661.75,160.5,664.16Z" style="fill: rgb(72, 167, 234);"></path><path class="cls-4" d="M145.53,662l-.24,0c.05.6.11,1.2.15,1.8q.24,3.79.12,7.58A77.91,77.91,0,0,0,145.53,662Z" style="fill: rgb(72, 167, 234);"></path><path class="cls-4" d="M161.07,679.67c0-.3-.07-.59-.11-.89-.08-.6-.14-1.2-.2-1.81a78.32,78.32,0,0,1-.26-12.81q.09-2.42.33-4.83l.12,0c0-.32.07-.63.12-.95a9.92,9.92,0,0,0-2.45-8.27,5.28,5.28,0,0,0-2.3-1.36,12.34,12.34,0,0,0-5.19-.32,13.37,13.37,0,0,0-1.5.32c-3.27.9-5.35,5.23-4.75,9.63.17,1.23.3,2.46.41,3.69l.24,0a77.91,77.91,0,0,1,0,9.42c-.07,2.42-.27,4.84-.57,7.26,0,.33-.06.65-.11,1s-.06.58-.08.87c-.24,4.09,1.78,7.92,4.83,8.76a12.26,12.26,0,0,0,6.69,0C159.59,688.4,161.67,684.07,161.07,679.67Z" style="fill: rgb(72, 167, 234);"></path></g><g id="body"><rect class="cls-1" width="720" height="720"></rect><rect class="cls-1" width="720" height="720"></rect><rect class="cls-1" x="651.66" y="650" width="1" height="1"></rect><path d="M534.62,604.4c-.08,3.91-.17,7.71-.26,11.36-.35,13.92-.76,25.52-.68,31.81a8.91,8.91,0,0,0,6.38,8.42l19.11,3.34c-.09-.94-.2-1.87-.33-2.81a9.91,9.91,0,0,1,2.45-8.28,5.48,5.48,0,0,1,2.3-1.36,12.45,12.45,0,0,1,5.18-.31,13.32,13.32,0,0,1,1.5.31c3.28.9,5.35,5.24,4.75,9.64q-.37,2.75-.55,5.49l15.94,2.79a8.91,8.91,0,0,0,7.27-1c4.08-2.57,4.87-7.66,2.91-12.07-23.09-52-46.29-131.9-50.24-180.41a46.23,46.23,0,0,0-26.21-38.41L505.09,424a8.93,8.93,0,0,0-8.68.63l-8.87,5.86a8.9,8.9,0,0,0-4,7.43v24.32a8.87,8.87,0,0,0,4.33,7.64c9.08,5.43,30.06,20.09,39.89,44.59.28.68.55,1.37.8,2.06C535,533.92,535.23,572.67,534.62,604.4Z"></path><path d="M593.82,680.74l-18.71-2c.23,4.09-1.78,7.92-4.84,8.76a12.23,12.23,0,0,1-6.68,0c-3.27-.9-5.35-5.23-4.75-9.63,0-.3.07-.59.11-.89l-13.39-1.46a12.2,12.2,0,0,0-13.38,13.6l37.58,194.85,28.51-3.37,6.46-187.37A12.19,12.19,0,0,0,593.82,680.74Z"></path><path class="cls-1" d="M185.38,604.4a194.35,194.35,0,0,0,10.47-22.24c7-17.66,10.22-41,11.47-59.48a16,16,0,0,1-2.5-.93l-7.53-3.55a16,16,0,0,1-5-3.75c-.28.68-.55,1.37-.8,2.06C185.05,533.92,184.77,572.67,185.38,604.4Z"></path><path class="cls-1" d="M528.56,516.51c-.25-.69-.52-1.38-.8-2.06a16,16,0,0,1-5,3.75l-7.53,3.55a16,16,0,0,1-2.5.93c1.25,18.43,4.46,41.82,11.47,59.48a194.35,194.35,0,0,0,10.47,22.24C535.23,572.67,535,533.92,528.56,516.51Z"></path><path class="cls-5" d="M524.15,582.16c-7-17.66-10.22-41-11.47-59.48a16,16,0,0,0,2.5-.93l7.53-3.54a16.23,16.23,0,0,0,5-3.76c-9.83-24.5-30.81-39.16-39.89-44.59a8.87,8.87,0,0,1-4.33-7.64v-21c-7,.43-12.75,5.26-14.75,12.9l-.8,3.06.17.15,0,.09c-1.44-1.32-2.9-2.55-4.35-3.68q-3.12-2.32-6.18-4.7c-20-15.48-44-24.55-68.22-23.45q-14.69.66-29.43.72t-29.43-.72c-24.25-1.1-48.24,8-68.22,23.45q-3.06,2.37-6.18,4.7c-1.46,1.13-2.91,2.39-4.37,3.72,0,0,0-.08,0-.12l.17-.16-.8-3.06c-2-7.64-7.79-12.47-14.75-12.9v21a8.87,8.87,0,0,1-4.33,7.64c-9.08,5.43-30.06,20.09-39.89,44.59a16.23,16.23,0,0,0,5,3.76l7.53,3.54a16,16,0,0,0,2.5.93c-1.25,18.43-4.46,41.82-11.47,59.48a194.35,194.35,0,0,1-10.47,22.24c.08,3.91.17,7.71.26,11.36a196.23,196.23,0,0,0,15.79-31.39c7.22-18.19,10.54-42.2,11.84-61.15a20.8,20.8,0,0,0,9.53-3.34.28.28,0,0,0,0,.09c-.07,1.63-.1,3.28-.09,4.94a100.06,100.06,0,0,0,8,37.88c8.14,19.58,24.45,54.74,54.92,67.36h35c6.85-2.41,13.87-4.87,21.41-4.31,5.94.47,11.89.72,17.85.79h.26c6-.07,11.91-.32,17.85-.79,7.54-.56,14.56,1.9,21.41,4.31h35c30.47-12.62,46.78-47.78,54.92-67.36a100.06,100.06,0,0,0,8-37.88c0-1.62,0-3.22-.09-4.81a1.62,1.62,0,0,0,0-.22,20.8,20.8,0,0,0,9.53,3.34c1.3,18.95,4.62,43,11.84,61.15a196.23,196.23,0,0,0,15.79,31.39c.09-3.65.18-7.45.26-11.36A194.35,194.35,0,0,1,524.15,582.16Z"></path><polygon class="cls-6" points="342.1 493.51 342.1 528.71 350.99 528.71 360.02 537.77 369.05 528.71 377.89 528.71 377.89 493.51 342.1 493.51"></polygon><g class="cls-7"><path class="cls-6" d="M332.49,603.67a1.63,1.63,0,0,1-.31,0A166.33,166.33,0,0,1,288.73,580c-28.17-21.39-43.16-48.61-43.34-78.69-.21-34.14,14.22-67.28,15.51-68.09a1.49,1.49,0,0,1,2.07.46,1.52,1.52,0,0,1,0,1.59c-.52,1.06-14.79,32.14-14.59,66,.43,71.19,83.66,99.16,84.5,99.41a1.46,1.46,0,0,1,1.11,1.77A1.53,1.53,0,0,1,332.49,603.67Z"></path><path class="cls-6" d="M387.51,603.67a1.5,1.5,0,0,1-.39-2.95c1.37-.43,84.06-28.46,84.49-99.41.2-33.86-14.08-65-14.59-66a1.5,1.5,0,0,1,2.09-2c1.29.82,15.71,34,15.5,68.09-.18,30.08-15.17,57.3-43.34,78.69a166.33,166.33,0,0,1-43.45,23.62A1.63,1.63,0,0,1,387.51,603.67Z"></path></g><path d="M426.4,583.58a46.6,46.6,0,0,0-4.85-.3c-1,0-2,0-3.1,0-15.87.35-42.41,10.52-58.94,10.52-16.21,0-42.41-10.18-58-10.52-1.07,0-2.09,0-3.1,0a46.42,46.42,0,0,0-4.85.3c-22.89,2.63-27.91,21.44-23.79,31.71.75,2,1.61,4.39,2.61,7,4,10.49,10.45,25.08,22.73,37.73a33.56,33.56,0,0,0,7.47,5.66c-4.29,11.51-7.86,26.58-2.45,42.31a182.66,182.66,0,0,0,22.38,43.34l0,0a5,5,0,0,1,5.68-.07c1.11.75,2.25,1.46,3.41,2.14C323.51,743.8,312,724,305.85,706c-4.7-13.63-1.66-27.12,2.19-37.67a81.77,81.77,0,0,0,14.08,4.35L336.73,756a60.62,60.62,0,0,0,21.34,5.37l1.94.13,1.95-.13a60.39,60.39,0,0,0,21.3-5.36L398,672.19a91.76,91.76,0,0,0,13-4.11c4,10.18,7.12,22.95,3.19,36.11-5.71,19.19-16.66,38.7-24.16,48.18.67-.41,1.32-.84,2-1.28a4.93,4.93,0,0,1,4.94-.44,8.87,8.87,0,0,1,1.25.76,175.84,175.84,0,0,0,21.75-45.51c4.49-15.06,1-29.23-3.47-40.33a44.07,44.07,0,0,0,8.39-5.54c8.49-7.27,17.39-25.53,22.46-37.55,1.19-2.81,2.16-5.28,2.88-7.19C454.31,605,449.29,586.21,426.4,583.58ZM363.5,728.71h-7V634.85l7-.07v93.93Z"></path><path class="cls-5" d="M467.33,205.48V196.1c0-25.49-13.6-58.54-35.67-71.28h0a143.28,143.28,0,0,0-143.32,0h0c-22.07,12.74-35.67,45.79-35.67,71.28v9.38a35,35,0,0,0,17.49,30.3l73.56,42.47a32.54,32.54,0,0,0,32.56,0l73.56-42.47A35,35,0,0,0,467.33,205.48Z"></path><g class="cls-8"><path class="cls-1" d="M467.33,205.48V196.1c0-25.49-13.6-58.54-35.67-71.28h0a143.28,143.28,0,0,0-143.32,0h0c-22.07,12.74-35.67,45.79-35.67,71.28v9.38a35,35,0,0,0,17.49,30.3l73.56,42.47a32.54,32.54,0,0,0,32.56,0l73.56-42.47A35,35,0,0,0,467.33,205.48Z"></path><path class="cls-1" d="M467.33,205.48V196.1c0-25.49-13.6-58.54-35.67-71.28h0a143.28,143.28,0,0,0-143.32,0h0c-22.07,12.74-35.67,45.79-35.67,71.28v9.38a35,35,0,0,0,17.49,30.3l73.56,42.47a32.54,32.54,0,0,0,32.56,0l73.56-42.47A35,35,0,0,0,467.33,205.48Z"></path><g class="cls-9"><path class="cls-6" d="M243.58,181.42s20.4-21.39,37-8.74C325.54,206.83,354,289.86,354,289.86L243.58,232.41Z"></path></g><g class="cls-9"><g class="cls-9"><path class="cls-6" d="M476.47,181.42s-20.39-21.39-37-8.74c-44.92,34.15-73.33,117.18-73.33,117.18l110.37-57.45Z"></path></g></g><path class="cls-6" d="M359.38,181.13c-5.79,0-11-3.61-12.64-8.68a333.18,333.18,0,0,0-24.51-60.74,5.55,5.55,0,0,1-.08-4.83,133.29,133.29,0,0,1,9.23-18.23c3.57-7.28,17.29-9.86,28-9.86s24.42,2.58,28,9.86a134.44,134.44,0,0,1,9.23,18.23,5.53,5.53,0,0,1-.08,4.82A333.07,333.07,0,0,0,372,172.4C370.33,177.51,365.15,181.08,359.38,181.13Zm0-99.34c-12.57,0-23,3.38-25.31,8.23l-.07.13A131.54,131.54,0,0,0,324.92,108a2.59,2.59,0,0,0,0,2.29,335.22,335.22,0,0,1,24.72,61.25c1.25,3.82,5.28,6.54,9.77,6.57s8.51-2.76,9.77-6.61a335.63,335.63,0,0,1,24.7-61.21,2.56,2.56,0,0,0,0-2.29,130.39,130.39,0,0,0-9.06-17.87l-.07-.13C382.35,85.17,371.94,81.79,359.36,81.79ZM332.7,89.37h0Z"></path></g><path d="M453.3,190.9a6.64,6.64,0,0,0-1.59-1c-7-3-26,6.2-32.65,21.63-.92,2.1-5.87,3.39-6.27,5.47l-12.66,20.38-9.93,22.56a42.94,42.94,0,0,1-60.55-.16l-9.53-21.22L308.79,218c-.39-2.3-5-2.67-6-5-6.69-15.43-27.47-26.12-34.44-23.1a6.25,6.25,0,0,0-1.64,1c-5.21,4.47-5,17.74.79,31.56v16.77h.19c0,.82,0,1.68.1,2.56v.94l.07.07c2.48,25.88,29.38,74.85,43.57,95a28.07,28.07,0,0,0,20.3,11.78l-4.16,30.77-2.3,17.07L276.4,419a12.4,12.4,0,0,0-6.24,16.59l2.83,6.09c14.12-8.73,29.74-14.35,45.74-15.75a10,10,0,0,1,9.61,10,16.57,16.57,0,0,0,16.56,16.56h31.41a16.53,16.53,0,0,0,15.06-9.71,16.34,16.34,0,0,0,1.5-6.85,10,10,0,0,1,8.9-10C417.58,427.44,433,433,447,441.64l2.82-6.06A12.41,12.41,0,0,0,443.54,419l-48.8-21.5-6.14-45.4-.33-2.47a28.07,28.07,0,0,0,20.3-11.78c14.88-21.12,43.71-73.91,43.74-98.57h.19V222.63C458.35,208.72,458.58,195.34,453.3,190.9ZM363.5,363.73v59.54h-7v-73h7Z"></path><path d="M232.46,430.47l-8.87-5.86a8.93,8.93,0,0,0-8.68-.63l-19,8.92a46.23,46.23,0,0,0-26.21,38.41c-4,48.51-27.15,128.43-50.24,180.41-2,4.41-1.17,9.5,2.91,12.07a8.91,8.91,0,0,0,7.27,1l15.7-2.75c-.11-1.23-.24-2.46-.41-3.69-.6-4.4,1.48-8.73,4.75-9.63a13.37,13.37,0,0,1,1.5-.32,12.34,12.34,0,0,1,5.19.32,5.28,5.28,0,0,1,2.3,1.36,9.92,9.92,0,0,1,2.45,8.27c0,.32-.08.63-.12.95l19-3.32a8.91,8.91,0,0,0,6.38-8.42c.08-6.29-.33-17.89-.68-31.81-.09-3.65-.18-7.45-.26-11.36-.61-31.73-.33-70.48,6.06-87.89.25-.7.52-1.38.8-2.06,9.83-24.5,30.81-39.16,39.89-44.59a8.87,8.87,0,0,0,4.33-7.64V437.9A8.9,8.9,0,0,0,232.46,430.47Z"></path><path d="M161,678.78c0,.3.07.59.11.89.6,4.4-1.48,8.73-4.75,9.63a12.26,12.26,0,0,1-6.69,0c-3-.84-5.07-4.67-4.83-8.76,0-.29,0-.58.08-.87s.07-.65.11-1h-.1l-18.71,2a12.19,12.19,0,0,0-10.91,12.45l6.46,187.37,28.51,3.37,37.58-194.85a12.2,12.2,0,0,0-13.38-13.6l-13.39,1.46-.29,0C160.82,677.58,160.88,678.18,161,678.78Z"></path><path class="cls-10" d="M386.05,674.22,363.5,684.55V729h-7V687.75l-29.13,13.34L337,755.73s12.31,7.75,23.26,6.94,23.27-6.92,23.27-6.92l14.64-83.45Z"></path><polygon class="cls-11" points="363.5 635 356.5 635 356.5 687.75 363.5 684.55 363.5 635"></polygon><path class="cls-12" d="M389,354.91l-25.44,12.72V423h-7V371.13L326.89,386l-2.5,18.55s3.49,26.19,3.49,31.73a16.56,16.56,0,0,0,16.56,16.56h31.41a16.57,16.57,0,0,0,16.56-16.56c0-5.54,3.26-31.76,3.26-31.76Z"></path><polygon class="cls-11" points="363.53 350 356.53 350 356.53 371.13 363.53 367.63 363.53 350"></polygon></g><g id="clothes"><path class="clothes-17-cls-2" d="M601.19,623.7s-21.14-178-87-202.42c-17.09-6.33-59.36-12.45-77.52-14.89l-10.27-3c-5.77,2.27-69.33,15.42-133.95,0h0l-13,3.66c-20.25,2.82-56,8.35-71.39,14.05-65.86,24.42-87,202.42-87,202.42l93.46,16.09,9-38.85-5.61,319.41a3.1,3.1,0,0,0,3.09,3.1l280.33.46a3.09,3.09,0,0,0,3.09-3.09L497.21,594.2l10.53,45.59Z"></path><g class="clothes-17-cls-3"><path class="clothes-17-cls-4" d="M552.16,458.76c6.22-15.56-30.67,21.18-33.83,26.31C483.45,523.82,542.66,470.46,552.16,458.76Z"></path><path class="clothes-17-cls-5" d="M496.49,510.79c-5.91,5.45-14.28,12.88-15,21.43C487,526.08,492.3,518,496.49,510.79Z"></path><path class="clothes-17-cls-6" d="M491.71,472.36a.37.37,0,0,0,.34-.1C491.89,472.12,491.79,472.16,491.71,472.36Z"></path><path class="clothes-17-cls-7" d="M483,479.91c1.93-4.19,7-3.43,8.71-7.55C488.06,470.36,478.65,481.11,483,479.91Z"></path><path class="clothes-17-cls-8" d="M515.92,479.29c-.13-.11-.17,0-.24.11C515.8,479.46,515.87,479.4,515.92,479.29Z"></path><path class="clothes-17-cls-9" d="M517.59,479c.83-1.23,5.71-7,2.11-5C518.87,475.19,514,481,517.59,479Z"></path><path class="clothes-17-cls-10" d="M601.49,475c-1.52.84-1.61,1.08-.59,1.84C604,480.3,604.31,472.62,601.49,475Z"></path><path class="clothes-17-cls-11" d="M602.53,474.25s0,0,.05.05C602.8,474.22,602.61,474,602.53,474.25Z"></path><path class="clothes-17-cls-12" d="M436,498.84c-.13-.07-.2,0-.26.1C435.88,499.05,435.94,499,436,498.84Z"></path><path class="clothes-17-cls-13" d="M439,496.66c-.18-2.45-2.44,1.38-3,2.18C437.76,499.5,438.18,497.66,439,496.66Z"></path><path class="clothes-17-cls-14" d="M608.37,472c1.82-.26-.77-2.85-2.13-2.33C605.66,471.27,607.37,471.39,608.37,472Z"></path><path class="clothes-17-cls-15" d="M386.39,517.79c1-.66,2.69-2.38,1.73-3.16C387.33,514.75,385.24,517.3,386.39,517.79Z"></path><path class="clothes-17-cls-16" d="M505.43,499.11c-.05-.08-.08,0-.12,0S505.41,499.18,505.43,499.11Z"></path><path class="clothes-17-cls-17" d="M503.15,500.09c-.39.65-1.6,2.91,0,2C504.85,500.67,505.9,497.1,503.15,500.09Z"></path><path class="clothes-17-cls-18" d="M617.39,472.77a1.52,1.52,0,0,0,2.14-1.14C619.85,470.26,615.45,471.45,617.39,472.77Z"></path><path class="clothes-17-cls-19" d="M356.57,561.45c-.06-.19-.11-.09-.18,0C356.47,561.5,356.54,561.56,356.57,561.45Z"></path><path class="clothes-17-cls-20" d="M356.39,561.47c-.86-.47-1.53-.13-2,.86C354.09,564.26,356.08,562.3,356.39,561.47Z"></path><path class="clothes-17-cls-21" d="M434.68,513.91a2,2,0,0,0-1.45,2.18A2.18,2.18,0,0,0,434.68,513.91Z"></path><path class="clothes-17-cls-22" d="M463.91,541.57c.87.48,1.56.1,2.08-.86C466.44,538.39,464.31,540.61,463.91,541.57Z"></path><path class="clothes-17-cls-23" d="M463.91,541.57c-.09-.05-.15-.07-.19,0S463.84,541.68,463.91,541.57Z"></path><path class="clothes-17-cls-24" d="M592.91,465.1c1.39-.06,0-1.8-1-1.52C591.22,464.4,592.1,465.15,592.91,465.1Z"></path><path class="clothes-17-cls-25" d="M591.67,467.5c-.24-1.08-.73-1.42-1.83-1.2C590.12,467.3,590.63,467.69,591.67,467.5Z"></path><path class="clothes-17-cls-26" d="M595.19,472.81c-.14,0-.21.07-.06.13A1.39,1.39,0,0,1,595.19,472.81Z"></path><path class="clothes-17-cls-27" d="M595.66,475c2-.14.58-1.61-.53-2.1C594.55,473.91,594.72,474.66,595.66,475Z"></path><path class="clothes-17-cls-28" d="M606,473.31a1.29,1.29,0,0,0-2.43-.39C604.31,473.35,605.57,474.9,606,473.31Z"></path><path class="clothes-17-cls-29" d="M314.38,614.14c.06,0,0-.44-.11-.61C313.4,613.12,313.23,615,314.38,614.14Z"></path><path class="clothes-17-cls-30" d="M357.22,555.12c.21-.57-.34-.86-.74-.45C356.29,555.21,356.83,555.55,357.22,555.12Z"></path><path class="clothes-17-cls-31" d="M425.34,489.43a2,2,0,0,0,.25-1C425,487.51,424.68,489,425.34,489.43Z"></path><path class="clothes-17-cls-32" d="M425.26,489.65c.23.08.23-.09.08-.22C425.32,489.5,425.28,489.58,425.26,489.65Z"></path><path class="clothes-17-cls-33" d="M481,480.34c-.46-.06-1.16-.37-1.23.3C480.34,481.17,480.69,480.76,481,480.34Z"></path><path class="clothes-17-cls-34" d="M481.27,480.23c-.11-.1-.16,0-.23.11C481.16,480.38,481.22,480.35,481.27,480.23Z"></path><path class="clothes-17-cls-35" d="M478.69,483.36c.22-.58-.28-.85-.69-.43C477.8,483.48,478.3,483.8,478.69,483.36Z"></path><path class="clothes-17-cls-36" d="M493.23,472c-.28-.58-.81.1-1.18.29C492.44,472.48,492.84,472.65,493.23,472Z"></path><path class="clothes-17-cls-37" d="M474.53,503s-.4.17-.62.26C473.69,504.46,475.18,503.85,474.53,503Z"></path><path class="clothes-17-cls-38" d="M503.47,482.38c.18,0,.1-.11,0-.19S503.38,482.37,503.47,482.38Z"></path><path class="clothes-17-cls-39" d="M503.46,482.19c.06-.43.59-1.21-.09-1.27C502.77,481.53,503.09,481.87,503.46,482.19Z"></path><path class="clothes-17-cls-40" d="M483.45,517s-.41.16-.65.25C482.63,518.43,484.14,517.84,483.45,517Z"></path><path class="clothes-17-cls-41" d="M521.66,473.54a.21.21,0,0,0-.29.13C521.51,473.79,521.57,473.64,521.66,473.54Z"></path><path class="clothes-17-cls-42" d="M522.9,473.24c-.54-.54-.89-.12-1.24.3C522.13,473.61,522.83,473.92,522.9,473.24Z"></path><path class="clothes-17-cls-43" d="M558.39,452c.39-1.23-1.19-.77-.66.19C558,452.15,558.37,452.1,558.39,452Z"></path><path class="clothes-17-cls-44" d="M563.36,449.68c.44-1.24-1.07-.66-.62.24C563,449.85,563.33,449.8,563.36,449.68Z"></path><path class="clothes-17-cls-45" d="M602.42,472.8c-.63.6-.21,1,.2,1.33C603.27,473.41,603.67,472.55,602.42,472.8Z"></path><path class="clothes-17-cls-46" d="M603.61,472.92c-.07-.1-.12,0-.17.05A.11.11,0,0,0,603.61,472.92Z"></path><path class="clothes-17-cls-47" d="M616.53,476.23c.1,0,0-.08,0-.15S616.42,476.24,616.53,476.23Z"></path><path class="clothes-17-cls-48" d="M616.52,476.08c.13-.39.34-.82.24-1.1C616,474.09,615.85,475.65,616.52,476.08Z"></path><path class="clothes-17-cls-49" d="M257.13,618.43c-3.35-.41-8.64,7.53-7.56,8.91C251.23,624,256.32,621.22,257.13,618.43Z"></path><path class="clothes-17-cls-50" d="M294.5,613.2c-1.83-1.52-4,1.68-3.31,2.92C293.61,616.83,297.35,615.89,294.5,613.2Z"></path><path class="clothes-17-cls-51" d="M180.53,719.3c.55-.83,1.43-1.67,1.2-2.53C179.82,716.12,178,721.42,180.53,719.3Z"></path><path class="clothes-17-cls-52" d="M261.5,620.38c.08-.08-.23-.58-.37-.88C259.21,620.56,259.77,622.55,261.5,620.38Z"></path><path class="clothes-17-cls-53" d="M235.77,645c-.26-1.72-1.8.26-1.51,1.52A16.51,16.51,0,0,0,235.77,645Z"></path><path class="clothes-17-cls-54" d="M294.46,633.61c.1-.08.09-.31.13-.47C294.12,632.49,293.52,634.46,294.46,633.61Z"></path><path class="clothes-17-cls-55" d="M299.76,623.66c.19-.58-.31-.87-.71-.42C298.83,623.83,299.37,624.08,299.76,623.66Z"></path><path class="clothes-17-cls-56" d="M284.06,614.24Z"></path><path class="clothes-17-cls-57" d="M284,614l0,.24Z"></path><path class="clothes-17-cls-58" d="M284,614c-.88-.29-.77,1.33,0,0Z"></path><path class="clothes-17-cls-59" d="M257.71,625.34c.1-.09.08-.32.11-.49C257.29,624.29,256.84,626.16,257.71,625.34Z"></path><path class="clothes-17-cls-60" d="M612.77,494.14c-8.4-5.1,6.11-10.59,8.24-17.11.36-3.23-2.84-.73-4.48-.79-1.53,1.66-4.18.26-4.38,2.81.19,1.67-2.39.77-1.91,2.46-.54,2.92-5.65-.28-6.91,3.71-4.54.88-4.18-3.88-3-6.65-1.56-2.19-4.3,1.87-5.89.53.88-1.65.29-3.49-1.92-3.07-2.1-4.53,7.28-2.66,9.26-6.41,4.5-3.85-3-3.93-5.72-3.73-1,1.35-7.75,11.71-7.62,6.75.73-1.68.07-2.15-.44-3.11-9.55.53,4.53-7.83-1.89-6.83-4-2-11.22,9.56-9.48.76-.57-3.86-8.52,3.75-10.91,4-5.39-1.27-7.81,5.59-11.7,8.2-3.79.78,3.71-5.39.2-4.92-.51.47-1,1.16-1.66.79a76,76,0,0,1,10.18-13.43c-4.83-5.12-15.78,15.64-22.19,19.71-13.48,11.18-27.43,21.72-38.6,35.28-12.33,8.33-20.3,27.34-31.55,34.3,1.52-7.14,6.8-12.69,9-19.37-7.57,4.54-3.22-2.14-.75-5.48.29-3.66-9,8.26-4.86,8.73,1.13,5.95-5.59,11.76-11.93,14.43-.84.32-2.14-1.34-.89-1.62,3.44-.75,1.68-4.21,3.64-6.27-3.79-2.44,2.08-6.91,5.15-9.91,9.46-19.53,32.19-31.23,45.89-48.44-5,1.8-2.83,5.47-8.31,1.51-10.48,2.95-16.65,12.79-24.24,20.54-7.88,7.87-22,23.29-10.34,4.35-5.48,4.43-8,11.06-11.2,17.15-7.49,13.56-22.84,29.84-32.75,37.25,4.19-5.73,4.9-10.44,7.06-16.47-15.87,6.15,35.27-51.6,21.29-43.67-2.56,3.09-5.57,10.1-10.43,8.76-6.34,4.4-11.64,20-18.3,20.33,2.61-3.25,9.42-14.25,1.87-5.95-1.6-.07.58-2.44.73-3.45s-1.71-2.4-1.84-.44c-2.28,2.21-4.76,7.23-8,7.89,1.58-1.75,1.27-3.55-1.66-2.24-3.27-7.36,12.89-17.7,16.14-26-4.06-.18-8.73,11.1-11.89,10.05,1.35-5.37,8.13-9.2,9.62-15-2.93-3.6,3-5.2,2.11-8.28-5.13,3.86-6.48,8.86-6.87,1.79-8.65,9-23.06,13.8-29.85,25.42-1.55,2.45-3.22,5.33-5.92,2.49-6.31,4.47-16.63,13.45-22.75,21.55A53,53,0,0,0,357,562.51c-6.32,10.91-16.95,17.54-24.17,27.67-13.72,10.44-27.91,52.56-38.45,50.61-2.3-11.58-5.84,1.83-6.28-16.76-3.28,6.45-9.18-2.5-6-6.52.32-3.55-6.32.51-8.86-.81-3.13,3.34-3.36,8.9-6.38,12.74-5.32,3.9-6.58,7.48-8.22.44-3.92.58-12.93,8.41-10,.25-3.9,2.68-5.06,8.94-9.69,10.92.31,3.58-10.77,29.36-16.8,29,37.36-64.92-40.59,48.63-47.26,58.3-13.31,17.93-22.11,41-32,60.75-8.13,3.94-8,20.05-14.7,27.57C115.1,836.47,108.1,860,94.55,879.15c-13.12,11.89-19.11,26.18-32,38.25-6,6.45-15,7.53-17.89,18.18C34.42,943,26.94,951.1,18.19,960.69c-3.59,4.14-13.4,9.83-10.49,14.67,5.75-2.12,3.57,2.19,5.19,5.77.23,2.6-6.09,5.75-1.63,7.67,1.45-.14.54.83.5,1.44-1.33,2.84,3.38-.84,2.76,1.54-1.38,4.2.24,8.17-.31,12.09-.41,2.38,1.69-.57,2.56.08.43,1.6-2.87,3.51-1.93,5.13,5.25,2.21-6.74,6.66-6.69,10,.46,3.81,1.86,5.39.16,8.88,3.81-3.18,4,2.31,8.3.56C19.13,1033-1.13,1043.1,6,1046.74c3.67-1.64,7.46-2.47,8.85-6.19,19-10.23,5.41,5.62,12.42,3.42,6.05-4.93.38,2.88,5.31,2.06,3.1,4.72-17,4.42-8.49,10.32,7,1.37,7.11-6.93,13.37-9.06-4.2,10.21,7.28.4.09,12.32,5.78,1.15,8.05-5.49,11.41-3.91-5.58,9.74,17.07-3,17.54-5.25,6.84-5.28,5.62-5.42,3.71,1.11,6.91-3.73-5.38,8.4-5.82,10.54-6.46,10.82,13-8.22,14.68-12.5,24-21.54,49.62-41,67.84-68.07,2.72-3.81,10.32-11.28,6.62-2.46-2.07,4.45-12,17.56-4.13,13.43,3.73.62-5.84,7.72-2,7.82,7.26-8.35,1.42-19.64,15.83-23.91,3.94-.88-6.13,9.11-1.68,8.85-3.84,10.58-16.93,23.24-26.45,32.94-5.63,8.74-35.5,25.6-19.37,21.93,14.66,1.11,24.66-21.1,36.54-29.79,9.86-9.77,3,.49.06,5.9,13.32-19.76,25.31-38.69,43.06-55.15,2.7.65-3.5,5.45-2.73,8.34-3.1,1.08-1,2.57-1.61,4.93,5.06,7.7-18.25,32.74-26.47,49.21,2.15,4.4,5.94-8.17,9.18-8.88,10.19-1.52,14.56-20.45,22.89-21.8-2.76,3.89-9.74,13.78-1.33,5.92-3.46,10.08,4.33-.63,7.4-4,2.85.38-3.47,3.87,2.78,2.29,3.24,7.36-12.86,17.69-16.13,26,4.12.18,8.67-11.09,11.89-10-1.32,5.36-8.16,9.2-9.63,15,2.91,3.61-3,5.2-2.11,8.28,7.77-5.75,28.33-12.34,39-30.38,9.54,1.47,3,1,9.29-4.89,14.48-7.91,22.73-23.2,29.6-36.69-6.37-45.67,134.41,101.15,140,96.44L768,621.53C764.13,619,611.1,492.12,612.77,494.14Zm-496.94,511.1h-.3A.35.35,0,0,1,115.83,1005.24Zm.19.19c.08.18.06.32,0,0Zm1.43-2a.49.49,0,0,0,.25-.16,1.83,1.83,0,0,0-.13.16A.48.48,0,0,0,117.45,1003.44Zm.33-.26a.69.69,0,0,0,0-.13A.27.27,0,0,1,117.78,1003.18ZM507.39,518.73l.09-.11C508,518.6,507.63,518.58,507.39,518.73Zm1.63-2.54c-.12.35.05.76.51.63C509.07,517,508.9,516.54,509,516.19Z"></path></g><g class="clothes-17-cls-61"><path class="clothes-17-cls-62" d="M361.13,425.77a223.39,223.39,0,0,1-59-7.92A1.5,1.5,0,1,1,303,415a220.71,220.71,0,0,0,116.37,0,1.5,1.5,0,1,1,.79,2.89A223.46,223.46,0,0,1,361.13,425.77Z"></path></g><g class="clothes-17-cls-61"><path class="clothes-17-cls-62" d="M222.66,607.68h-.11a1.5,1.5,0,0,1-1.39-1.61c1.88-26.16,1.71-49.21-.52-70.47a1.5,1.5,0,0,1,3-.32c2.25,21.44,2.43,44.67.53,71A1.49,1.49,0,0,1,222.66,607.68Z"></path></g><g class="clothes-17-cls-61"><path class="clothes-17-cls-63" d="M498.71,604.3a1.5,1.5,0,0,1-1.49-1.39,421.85,421.85,0,0,1,.41-67.07,1.5,1.5,0,1,1,3,.24,418.33,418.33,0,0,0-.41,66.6,1.49,1.49,0,0,1-1.38,1.61Z"></path></g></g><g id="accessories_back"><rect class="cls-1" x="651.66" y="650" width="1" height="1"></rect><rect class="cls-1" x="43.79" y="55" width="1" height="1"></rect></g><g id="outerwear_front"><path class="outerwear-149-cls-3" d="M549.55,464.31a21.19,21.19,0,0,0-2.81-23.84c-2-2.29-4.24-4.64-6.49-6.91a102.89,102.89,0,0,0-34.2-22.79l-16.28-6.65L366.29,608.2l-5.57,261.94-6.35-262.56L231.82,404.12l-16.28,6.65a103,103,0,0,0-34.19,22.79c-2.25,2.27-4.48,4.62-6.5,6.91a21.18,21.18,0,0,0-2.8,23.84l34,80.21c3.5,6.68,14.55,61.9,14.38,69.45-2.67,115-5.39,156.94-9.27,196.59-6.22,63.33-11.65,82.67,3.82,96.87,0,0-.69,19.71,1.23,34.47,1.32,10.11,9.48,12.71,19.61,11.67,19.62-2,86-6.59,112.34-9.52,6-.67,10.56-5.29,12.65-11,2.08,5.68,6.6,10.3,12.64,11,36.21,4,36.72,4.46,111.34,9.52,10.16.69,18.3-1.56,19.61-11.67,1.92-14.76,2.24-34.47,2.24-34.47,17.08-15.7,7.64-75.64,1.71-132.61-5.11-49-4.95-100.51-7.16-196.23a44.36,44.36,0,0,1,5.07-21.69Z"></path><path class="outerwear-149-cls-4" d="M284.17,514.9l-9.2-48c-2.75-9.5.29-32.48,3-42,4-14.1,9.83-33.35,12.58-36.91l3.25-4.2a107.29,107.29,0,0,0-22,3.89c-13.94,4.11-29.2,11.18-30,11.44-14.92,4.8-33.72,8.73-33.72,8.73Z"></path><path class="outerwear-149-cls-4" d="M438.28,514.9l9.19-48c2.76-9.5-.28-32.48-3-42-4-14.1-9.83-33.35-12.58-36.91l-3.25-4.2a107.15,107.15,0,0,1,22,3.89c14,4.11,29.2,11.18,30,11.44,14.92,4.8,33.72,8.73,33.72,8.73Z"></path><path class="outerwear-149-cls-5" d="M356.81,599.85,275.64,476.78l-67.57-68.94-36.75,7.49s60.4,63.6,78.63,85.79C272.27,528.26,337,616,337,616Z"></path><path class="outerwear-149-cls-5" d="M365,599.85l81.32-125,67.41-67,32.09,6.79s-47.18,50.76-61,67c-27.46,32.29-100,134.4-100,134.4Z"></path><path class="outerwear-149-cls-6" d="M209.51,442.92a9.14,9.14,0,1,1,9.13-9.14A9.15,9.15,0,0,1,209.51,442.92Zm0-14.65a5.51,5.51,0,1,0,0,11h0a5.51,5.51,0,0,0,0-11Z"></path><path class="outerwear-149-cls-6" d="M238.14,474.92a9.14,9.14,0,1,1,9.14-9.14A9.15,9.15,0,0,1,238.14,474.92Zm0-14.65a5.51,5.51,0,1,0,0,11h0a5.51,5.51,0,0,0,0-11Z"></path><path class="outerwear-149-cls-5" d="M198.38,888.18c-.41-6.53,1.8-70.36,1.8-70.36-.84-13.34,7-41.66,9.47-55.53,2.7-15.4,10.52-98.57,14.16-151.08-5.94,4.28-83.09,19.77-114,34.5-3.21,31-7.35,71.79-8.48,86.31a123.54,123.54,0,0,1-7.2,32.53C90.25,775.37,72,869.61,71.23,876.69,68.89,897.5,64,943.47,60.42,976.6,60.42,976.6,198.5,890.07,198.38,888.18Z"></path><path class="outerwear-149-cls-7" d="M217.61,675.41c5.42-52.4,4.9-51.47,5.28-61.95,2.55-71-48.68-159.67-48.68-159.67a3.74,3.74,0,0,0-4.89-1.69h0c-7.48-11.37-49.33,86.06-55.46,155-.15,1.73-10.59,100.48-12.48,124.93a117,117,0,0,1-2.46,16.27C112.89,739.83,208.79,679.9,217.61,675.41Z"></path><path class="outerwear-149-cls-5" d="M504.77,674.56l9.35,53.86A203.69,203.69,0,0,1,517,771.55c-.4,9.89.75,35.58.83,36.2,2.25,16.63,9.66,77.29,9.71,78.64,0,0,130.13,75.25,130.1,74.94,0,0-13.33-109.83-17.25-120.64-3.81-10.5-18.11-81.38-19.9-92.4C618,733,611.93,669,608.65,637.35q-6.63-3.35-13.31-6.6c-30.9-15-62.13-29.4-93-44.54C506.25,639.81,503.12,659.32,504.77,674.56Z"></path><path class="outerwear-149-cls-8" d="M504.77,674.56c-5.42-52.4-7.19-91.73-5.8-102.13,3.72-27.74,46.19-118.64,46.19-118.64A3.72,3.72,0,0,1,550,452.1h0c7.48-11.37,49.33,86.06,55.46,155,.15,1.73,10.59,100.48,12.49,124.93a115.5,115.5,0,0,0,2.45,16.27C606.47,739.83,513.58,679.05,504.77,674.56Z"></path><path class="outerwear-149-cls-9" d="M403.24,652.38c17.86-6.63,35.67-13.57,53-21.57,13.91-6.43,29.42-14.75,43.45-20.93,1.49-.6,4.2,45,5.11,64.68-2.25,1.08-4.5,2.16-6.75,3.22-18,7.53-36.72,13.49-54.2,22.18-35.57,17.67-56.41,22.28-84.69,33.23l-.17-65.6Q381.3,660.57,403.24,652.38Z"></path><path class="outerwear-149-cls-9" d="M318.36,652.38c-17.87-6.63-35.68-13.57-53-21.57-13.91-6.43-27.55-13.43-41.57-19.6-1.5-.6-7.26,65-5,66.08,18,7.52,40.85,15.41,59,22.67,28.15,11.28,56.41,22.28,84.69,33.23l.17-65.6Q340.3,660.57,318.36,652.38Z"></path><path class="outerwear-149-cls-9" d="M152.59,654.23q-23.06,16.13-46.79,31.12c-2,19.82-5.69,57.59-6.88,62.94,14-8.46,115.66-68.56,124.48-73,2.43-23.46-1.45-42.73.41-64C214.75,616.53,165,645.56,152.59,654.23Z"></path><path class="outerwear-149-cls-9" d="M613.56,685.35c2,19.82,5.69,57.59,6.88,62.94-8.64-5.23-49.78-27.19-80.24-46.76-18.78-12.06-32.07-25.26-35.43-27-2.43-23.46-3.25-43.37-5.11-64.68C508.71,615.2,597.72,675.38,613.56,685.35Z"></path><path class="outerwear-149-cls-10" d="M354.37,607.58v271.9a6.9,6.9,0,0,0,13.79,0V607.58Z"></path><rect class="outerwear-149-cls-11" x="354.37" y="607.58" width="13.79" height="14.53"></rect><path class="outerwear-149-cls-11" d="M362,653.26a19.55,19.55,0,1,1,19.55-19.54A19.56,19.56,0,0,1,362,653.26Zm0-31.32a11.78,11.78,0,0,0,0,23.56h0a11.78,11.78,0,1,0,0-23.56Z"></path><path class="outerwear-149-cls-12" d="M169.32,452.1s41.93,51.26,48.21,105.19c0,0,8,38.9,6.28,53.92"></path><path class="outerwear-149-cls-12" d="M528.51,479.92S506.29,521.56,499,571.34l.69,37"></path><line class="outerwear-149-cls-12" x1="219.45" y1="679.43" x2="224.03" y2="611.83"></line><path class="outerwear-149-cls-12" d="M504.79,676.08c-1.09-21.73-3.09-43.73-4.88-66.2"></path><polygon class="outerwear-149-cls-5" points="437.73 570.37 437.73 603.46 445.95 603.46 454.44 611.97 462.93 603.46 471.37 603.46 471.37 570.37 437.73 570.37"></polygon></g><g id="accessories"><path class="accessory-16-cls-1" d="M320.11,345.42c-8.63-2.94-30.85,16-31.16,15.95l-10.16,3.17c-2.51.58-12.1,8.12-13.8,9.4-10.66,8.06-22,18.38-20.76,37,1.48,23.27,8.73,59.44,16.29,82.94a166.13,166.13,0,0,0,17.73,37.86c16.15,25.53,47.45,70.13,78.74,87.35a8.61,8.61,0,0,0,9.92-1.1c13.93-12.47,56.88-50.21,81.4-96.75,3.11-5.89,16.12-34.94,17.87-41.36,5.71-20.84,17.09-55.37,11-78.64-.13-.5-13.88-26.92-24.41-36.38-1.23-1.1-13.79-6.36-15.32-7,0,0-18.66-15.51-28.2-14.57-7.38.74-11.61,9.22-22.89,9.52-19.13.51-29.32.47-46.42-.42C331.38,352,320.61,345.58,320.11,345.42Z"></path><path class="accessory-16-cls-2" d="M251.09,392.24a57.58,57.58,0,0,0-25.86,23.39c-2,3.34,3.22,6.36,5.18,3a52.15,52.15,0,0,1,23.71-21.24c3.51-1.6.46-6.77-3-5.18Z"></path><path class="accessory-16-cls-3" d="M251.91,409.15a99.23,99.23,0,0,1-24,38.23c-2.74,2.72,1.5,7,4.24,4.24a105.82,105.82,0,0,0,25.59-40.87c1.26-3.66-4.54-5.23-5.79-1.6Z"></path><path class="accessory-16-cls-4" d="M252.35,444.94c-4.46,13-13.41,23.52-22.29,33.76-2.52,2.9,1.71,7.17,4.25,4.24,9.59-11.06,19-22.36,23.82-36.41,1.26-3.66-4.54-5.23-5.78-1.59Z"></path><path class="accessory-16-cls-5" d="M269.25,468.78c-6.49,8-15.2,14-19.68,23.48-3.41,7.22-6.7,17.09-4.68,25.11.94,3.75,6.73,2.16,5.79-1.59-1.71-6.77,1.71-16.32,4.94-22.23,4.43-8.09,12.12-13.49,17.88-20.53,2.42-3-1.8-7.23-4.25-4.24Z"></path><path class="accessory-16-cls-6" d="M270.77,506.45c-.32,11.12-3.76,27.86-15,33.11-3.49,1.63-.45,6.81,3,5.18,13.2-6.18,17.56-25.13,17.94-38.29.12-3.87-5.88-3.86-6,0Z"></path><path class="accessory-16-cls-7" d="M286.92,530q-9.46,18.35-17.16,37.48c-1.45,3.58,4.35,5.14,5.78,1.6q7.44-18.42,16.56-36c1.76-3.43-3.41-6.47-5.18-3Z"></path><path class="accessory-16-cls-8" d="M301,559.64a48.41,48.41,0,0,0-15,32.05c-.27,3.85,5.73,3.84,6,0a42.13,42.13,0,0,1,13.22-27.81c2.8-2.67-1.45-6.91-4.25-4.24Z"></path><path class="accessory-16-cls-9" d="M315.09,574.18a60.7,60.7,0,0,1-.6,40.87c-1.34,3.63,4.46,5.19,5.78,1.59a66,66,0,0,0,.61-44c-1.23-3.64-7-2.08-5.79,1.59Z"></path><path class="accessory-16-cls-10" d="M339.35,591a115,115,0,0,0-6,43.65c.22,3.84,6.22,3.87,6,0a110,110,0,0,1,5.81-42c1.25-3.66-4.54-5.24-5.79-1.6Z"></path><path class="accessory-16-cls-11" d="M362.77,611.9a80.42,80.42,0,0,0-6,37c.28,3.82,6.29,3.85,6,0a76.6,76.6,0,0,1,5.77-35.45c1.48-3.55-4.32-5.11-5.79-1.59Z"></path><path class="accessory-16-cls-12" d="M379.41,586.81a103.22,103.22,0,0,1,2.41,40.13c-.51,3.81,5.5,3.78,6,0a107.74,107.74,0,0,0-2.62-41.73c-1-3.73-6.77-2.15-5.79,1.6Z"></path><path class="accessory-16-cls-13" d="M401.49,577.07A123.14,123.14,0,0,1,414,613.93c.66,3.8,6.44,2.19,5.79-1.59A128.47,128.47,0,0,0,406.67,574c-1.8-3.41-7-.38-5.18,3Z"></path><path class="accessory-16-cls-14" d="M421.1,552c7.29,12.76,8.15,27.5,8.75,41.86.16,3.84,6.17,3.86,6,0-.65-15.44-1.74-31.18-9.57-44.89-1.91-3.35-7.1-.33-5.18,3Z"></path><path class="accessory-16-cls-15" d="M434.58,530.37c6,2.76,8.31,10.83,10,16.68a67.45,67.45,0,0,1,2.63,20.17c-.05,3.87,5.95,3.87,6,0a72.84,72.84,0,0,0-3.92-25.14c-2.26-6.43-5.15-13.85-11.72-16.89-3.48-1.61-6.53,3.56-3,5.18Z"></path><path class="accessory-16-cls-16" d="M448.5,495c4.32,4.6,8.73,9.25,11.7,14.87,3.39,6.4,3.83,13.44,3.45,20.54-.2,3.86,5.8,3.85,6,0,.41-7.61-.21-15.16-3.53-22.12-3.19-6.67-8.36-12.19-13.37-17.53-2.65-2.82-6.89,1.43-4.25,4.24Z"></path><path class="accessory-16-cls-17" d="M455.39,463.56c1.14,14.53,15.2,27.76,26.64,35.27,3.24,2.13,6.25-3.06,3-5.18A66.15,66.15,0,0,1,471,481.36c-4.1-4.79-9.11-11.32-9.62-17.8-.3-3.83-6.3-3.86-6,0Z"></path><path class="accessory-16-cls-18" d="M454.67,452.51c10,1.48,24.76,9,27.37,19.49.93,3.75,6.71,2.16,5.78-1.59-3.12-12.61-19.45-21.89-31.55-23.68-3.78-.56-5.41,5.22-1.6,5.78Z"></path><path class="accessory-16-cls-19" d="M463.15,423.24a48.84,48.84,0,0,1,18.91,18.81c1.9,3.36,7.09.34,5.18-3a54.75,54.75,0,0,0-21.07-21c-3.37-1.88-6.4,3.3-3,5.18Z"></path><path class="accessory-16-cls-20" d="M460.69,399a106.69,106.69,0,0,0,32.08,12.14c3.77.76,5.38-5,1.59-5.79a101.63,101.63,0,0,1-30.64-11.53c-3.35-1.93-6.38,3.25-3,5.18Z"></path><path class="accessory-16-cls-1" d="M320.11,345.42c-8.63-2.94-30.85,16-31.16,15.95l-10.16,3.17c-2.51.58-12.1,8.12-13.8,9.4-10.66,8.06-22,18.38-20.76,37,1.48,23.27,8.73,59.44,16.29,82.94a166.13,166.13,0,0,0,17.73,37.86c16.15,25.53,47.45,70.13,78.74,87.35a8.61,8.61,0,0,0,9.92-1.1c13.93-12.47,56.88-50.21,81.4-96.75,3.11-5.89,16.12-34.94,17.87-41.36,5.71-20.84,17.09-55.37,11-78.64-.13-.5-13.88-26.92-24.41-36.38-1.23-1.1-13.79-6.36-15.32-7,0,0-18.66-15.51-28.2-14.57-7.38.74-11.61,9.22-22.89,9.52-19.13.51-29.32.47-46.42-.42C331.38,352,320.61,345.58,320.11,345.42Z"></path><g class="accessory-16-cls-21"><path class="accessory-16-cls-22" d="M247.77,575.11a1.54,1.54,0,0,1-.77-.21,1.5,1.5,0,0,1-.51-2.06C269,535.21,294.81,514,323.15,509.7c15.36-2.31,24.88,1.32,34.08,4.83,8.66,3.3,16.83,6.42,29.62,4.62,26.86-3.77,43-25.24,58.6-46C461.36,452,476.4,432,501.79,429.52c15.66-1.5,32.23,4.3,49.25,17.27a1.5,1.5,0,1,1-1.82,2.38c-16.39-12.49-32.26-18.09-47.14-16.66-24.08,2.31-38.73,21.8-54.24,42.44-16,21.25-32.48,43.23-60.58,47.17-13.55,1.91-22.47-1.5-31.09-4.79-8.85-3.37-18-6.86-32.57-4.66-27.41,4.13-52.49,24.89-74.54,61.71A1.5,1.5,0,0,1,247.77,575.11Z"></path><path class="accessory-16-cls-22" d="M242.83,557.26a1.5,1.5,0,0,1-1.28-2.27c22.53-37.63,48.33-58.88,76.66-63.15,15.36-2.31,24.88,1.32,34.09,4.83,8.65,3.3,16.82,6.42,29.61,4.63,26.87-3.78,43-25.25,58.6-46,15.91-21.18,30.95-41.19,56.34-43.63,15.66-1.5,32.23,4.31,49.25,17.27a1.5,1.5,0,0,1-1.82,2.39c-16.39-12.49-32.25-18.1-47.14-16.67-24.08,2.31-38.73,21.81-54.23,42.44-16,21.26-32.48,43.23-60.58,47.18-13.56,1.9-22.48-1.5-31.1-4.79-8.85-3.38-18-6.87-32.57-4.67-27.41,4.13-52.49,24.9-74.54,61.72A1.5,1.5,0,0,1,242.83,557.26Z"></path><path class="accessory-16-cls-22" d="M241.62,537.19a1.54,1.54,0,0,1-.77-.21,1.5,1.5,0,0,1-.51-2.06c22.53-37.63,48.32-58.87,76.66-63.15,15.36-2.31,24.88,1.32,34.09,4.84,8.65,3.3,16.82,6.41,29.61,4.62,26.86-3.78,43-25.24,58.6-46C455.21,414,470.25,394,495.64,391.59c15.67-1.5,32.23,4.31,49.25,17.27a1.5,1.5,0,0,1-1.82,2.39c-16.39-12.49-32.26-18.1-47.14-16.67-24.08,2.31-38.73,21.81-54.24,42.45-16,21.25-32.48,43.22-60.58,47.17-13.55,1.91-22.47-1.5-31.09-4.79-8.85-3.38-18-6.87-32.57-4.67-27.41,4.13-52.49,24.9-74.54,61.72A1.5,1.5,0,0,1,241.62,537.19Z"></path><path class="accessory-16-cls-22" d="M234.65,518a1.5,1.5,0,0,1-1.29-2.27c22.53-37.63,48.33-58.87,76.66-63.14,15.36-2.32,24.88,1.32,34.09,4.83,8.65,3.3,16.82,6.42,29.61,4.62,26.87-3.77,43-25.24,58.6-46,15.92-21.18,30.95-41.19,56.34-43.63,15.67-1.5,32.24,4.3,49.25,17.27a1.5,1.5,0,1,1-1.82,2.38C519.7,379.59,503.84,374,489,375.42c-24.08,2.31-38.72,21.8-54.23,42.44-16,21.25-32.48,43.23-60.58,47.17-13.55,1.91-22.47-1.5-31.1-4.79-8.84-3.37-18-6.86-32.57-4.66-27.41,4.13-52.48,24.89-74.54,61.71A1.48,1.48,0,0,1,234.65,518Z"></path><path class="accessory-16-cls-22" d="M229.53,497.75a1.57,1.57,0,0,1-.77-.21,1.5,1.5,0,0,1-.51-2.06c22.53-37.63,48.33-58.87,76.66-63.14,15.36-2.32,24.88,1.31,34.09,4.83,8.65,3.3,16.82,6.42,29.61,4.62,26.87-3.77,43-25.24,58.6-46,15.91-21.18,31-41.19,56.34-43.63,15.67-1.51,32.24,4.3,49.25,17.26a1.5,1.5,0,0,1-1.82,2.39c-16.39-12.49-32.25-18.09-47.14-16.67-24.08,2.32-38.73,21.81-54.23,42.45-16,21.25-32.48,43.23-60.58,47.17-13.56,1.91-22.48-1.5-31.1-4.79-8.85-3.37-18-6.87-32.57-4.67C278,439.44,252.87,460.2,230.82,497A1.5,1.5,0,0,1,229.53,497.75Z"></path><path class="accessory-16-cls-22" d="M451.45,604.88a1.49,1.49,0,0,1-.61-.13c-40.1-17.77-64.34-40.77-72-68.37-4.18-15-1.74-24.85.62-34.42,2.22-9,4.32-17.48,1-30-7-26.2-30.31-39.58-52.82-52.53-23-13.21-44.67-25.68-50.19-50.58-3.41-15.37.33-32.52,11.11-51a1.5,1.5,0,0,1,2.59,1.52c-10.39,17.8-14,34.22-10.77,48.82,5.24,23.62,26.37,35.77,48.75,48.64,23.05,13.25,46.88,26.95,54.23,54.36,3.55,13.22,1.26,22.49-1,31.45-2.27,9.19-4.62,18.69-.65,32.89,7.45,26.7,31.12,49,70.37,66.44a1.49,1.49,0,0,1,.76,2A1.51,1.51,0,0,1,451.45,604.88Z"></path><path class="accessory-16-cls-22" d="M435,613.37a1.43,1.43,0,0,1-.6-.12c-40.29-17.32-64.78-40-72.79-67.57-4.34-14.91-2-24.83.25-34.42,2.12-9,4.12-17.53.64-30-7.32-26.12-30.75-39.25-53.4-51.94-23.12-13-44.95-25.19-50.75-50-3.58-15.33,0-32.52,10.55-51.11a1.5,1.5,0,1,1,2.61,1.48c-10.19,17.91-13.64,34.38-10.24,48.94,5.5,23.56,26.77,35.48,49.29,48.1,23.19,13,47.17,26.43,54.83,53.75,3.69,13.18,1.5,22.48-.61,31.46-2.17,9.22-4.41,18.75-.29,32.9,7.75,26.62,31.67,48.71,71.1,65.66a1.5,1.5,0,0,1-.59,2.87Z"></path><path class="accessory-16-cls-22" d="M415.54,621.14a1.61,1.61,0,0,1-.6-.12c-40.29-17.32-64.78-40.06-72.79-67.57-4.34-14.91-2-24.83.25-34.43,2.12-9,4.12-17.52.64-30-7.32-26.12-30.75-39.25-53.4-51.95-23.12-12.95-44.95-25.19-50.75-50-3.58-15.32,0-32.52,10.55-51.11a1.5,1.5,0,0,1,2.61,1.49c-10.19,17.91-13.64,34.38-10.24,48.94,5.5,23.55,26.77,35.48,49.29,48.1,23.19,13,47.17,26.43,54.83,53.75,3.69,13.18,1.5,22.47-.61,31.46-2.17,9.22-4.41,18.74-.29,32.9,7.75,26.61,31.67,48.7,71.1,65.65a1.5,1.5,0,0,1-.59,2.88Z"></path><path class="accessory-16-cls-22" d="M548.5,614.71a1.46,1.46,0,0,1-.84-.26c-36.23-24.72-55.91-51.72-58.5-80.26-1.41-15.47,2.78-24.76,6.83-33.74,3.81-8.44,7.41-16.41,6.37-29.29-2.18-27-22.65-44.41-42.46-61.21-20.2-17.14-39.29-33.33-40.22-58.83-.58-15.72,6.2-31.92,20.15-48.14a1.5,1.5,0,1,1,2.27,2c-13.43,15.62-20,31.13-19.42,46.07.88,24.17,19.48,39.95,39.16,56.65,20.27,17.2,41.23,35,43.51,63.26,1.1,13.64-2.83,22.35-6.62,30.76-3.89,8.63-7.92,17.55-6.58,32.24,2.5,27.6,21.74,53.86,57.2,78.06a1.5,1.5,0,0,1-.85,2.73Z"></path><path class="accessory-16-cls-22" d="M530.73,620.09a1.52,1.52,0,0,1-.83-.25c-36.49-24.32-56.47-51.11-59.38-79.62C469,524.77,473,515.44,477,506.41c3.71-8.48,7.22-16.5,6-29.36-2.47-27-23.14-44.16-43.13-60.74-20.39-16.92-39.65-32.9-40.87-58.38-.75-15.72,5.85-32,19.62-48.36a1.5,1.5,0,0,1,2.3,1.93c-13.27,15.78-19.63,31.35-18.92,46.29C403.18,382,422,397.52,441.82,414c20.45,17,41.61,34.52,44.2,62.78,1.25,13.63-2.58,22.38-6.28,30.83-3.8,8.67-7.72,17.64-6.23,32.31,2.81,27.57,22.34,53.62,58.06,77.42a1.5,1.5,0,0,1-.84,2.75Z"></path><path class="accessory-16-cls-22" d="M510.24,624.22a1.52,1.52,0,0,1-.83-.25c-36.5-24.32-56.48-51.11-59.38-79.61-1.57-15.46,2.51-24.79,6.46-33.82,3.72-8.48,7.23-16.49,6.05-29.35-2.48-27-23.15-44.17-43.13-60.75-20.4-16.92-39.66-32.89-40.87-58.38-.75-15.71,5.85-32,19.62-48.36a1.5,1.5,0,1,1,2.29,1.93c-13.26,15.78-19.63,31.35-18.91,46.29,1.15,24.16,19.91,39.73,39.78,56.21,20.46,17,41.61,34.53,44.2,62.78,1.25,13.63-2.57,22.38-6.28,30.83-3.79,8.68-7.72,17.64-6.23,32.31,2.81,27.58,22.35,53.62,58.06,77.42a1.5,1.5,0,0,1,.42,2.08A1.48,1.48,0,0,1,510.24,624.22Z"></path><path class="accessory-16-cls-22" d="M291.66,377.39c-1.19,0-2.38,0-3.6-.07-19.31-.79-38.92-8.05-58.27-21.59a1.5,1.5,0,0,1,1.72-2.46c18.87,13.21,37.94,20.29,56.67,21.05,30.27,1.22,50.69-13.89,72.32-29.89,22.14-16.38,45.06-33.3,79.89-33,16.75.15,27.27,4.29,37.44,8.3,10.6,4.17,21.56,8.49,40,8.53h.28c34.39,0,67.8-14.8,99.31-44a1.5,1.5,0,0,1,2,2.2c-32.17,29.81-66.34,44.88-101.63,44.8-19,0-30.25-4.46-41.11-8.74-10.37-4.08-20.17-7.94-36.36-8.09-33.9-.32-56.35,16.31-78.09,32.4C341.08,362.53,321,377.39,291.66,377.39Z"></path><path class="accessory-16-cls-22" d="M298.47,397.16c-1.17,0-2.36,0-3.57-.07-19.31-.78-38.91-8-58.26-21.61a1.5,1.5,0,0,1,1.72-2.46c18.87,13.22,37.93,20.31,56.66,21.07,30.27,1.21,50.71-13.94,72.35-30,22.15-16.43,45.06-33.44,79.93-33.11,16.74.16,27.26,4.3,37.43,8.31,10.6,4.18,21.56,8.5,40,8.53H525c34.41,0,67.86-14.84,99.4-44.13a1.5,1.5,0,1,1,2,2.2C594.3,335.72,560.16,350.84,525,350.84h-.23c-19,0-30.25-4.46-41.11-8.74-10.37-4.09-20.17-8-36.36-8.1-33.87-.34-56.36,16.38-78.12,32.52C347.93,382.26,327.84,397.16,298.47,397.16Z"></path><path class="accessory-16-cls-22" d="M289,362.11c-1,0-2.06,0-3.11-.06-19.51-.76-38.87-8.86-57.53-24.07a1.5,1.5,0,1,1,1.9-2.32c18.14,14.79,36.9,22.66,55.74,23.39,30.5,1.2,52.21-16.06,75.19-34.31,23.43-18.62,47.65-37.86,82.7-37.86h.37c17,.06,27.32,4.68,37.35,9.15,10.41,4.65,21.17,9.47,39.79,9.37,34.86-.14,69.77-17.13,103.76-50.48a1.5,1.5,0,1,1,2.1,2.14C592.68,291,557.06,308.25,521.4,308.4c-19.25.1-30.33-4.85-41-9.63-10.19-4.54-19.82-8.83-36.14-8.89h-.36c-34,0-57.81,18.91-80.84,37.21C340.38,345.08,318.94,362.11,289,362.11Z"></path><path class="accessory-16-cls-22" d="M373.91,577.43a41.36,41.36,0,0,1-11-1.51c-9.11-2.53-13.81-7.13-18.36-11.58-4.78-4.68-9.3-9.1-18.89-11.65-18.13-4.83-39.33,1.31-63,18.26a1.5,1.5,0,0,1-1.75-2.44c24.46-17.49,46.5-23.8,65.54-18.72,10.36,2.76,15.37,7.66,20.22,12.41,4.47,4.37,8.69,8.5,17.06,10.83,17.65,4.89,33.49-4.11,48.81-12.8,15.12-8.59,30.75-17.46,47.5-12,10.33,3.36,19.2,11.58,26.39,24.42a1.5,1.5,0,0,1-2.62,1.47c-6.8-12.17-15.11-19.92-24.7-23-15.49-5-29.87,3.12-45.09,11.77C401.28,570,388.26,577.43,373.91,577.43Z"></path><path class="accessory-16-cls-22" d="M369.62,594.05a41.55,41.55,0,0,1-10.2-1.28c-9.16-2.34-14-6.84-18.6-11.19-4.87-4.58-9.48-8.9-19.13-11.26-18.22-4.45-39.29,2.14-62.62,19.58a1.5,1.5,0,0,1-1.8-2.4c24.08-18,46-24.77,65.13-20.09,10.42,2.54,15.53,7.34,20.48,12,4.56,4.28,8.86,8.32,17.28,10.47,17.75,4.52,33.4-4.8,48.53-13.82,14.94-8.9,30.38-18.09,47.24-13,10.4,3.14,19.44,11.16,26.89,23.86a1.5,1.5,0,0,1-2.59,1.52c-7.05-12-15.52-19.6-25.17-22.51-15.59-4.71-29.79,3.75-44.83,12.71C397.45,586.23,384.32,594.05,369.62,594.05Z"></path><path class="accessory-16-cls-22" d="M366.38,611a41,41,0,0,1-10.2-1.28c-9.17-2.34-14-6.84-18.6-11.19-4.88-4.58-9.49-8.9-19.14-11.26-18.22-4.45-39.29,2.14-62.62,19.58a1.5,1.5,0,0,1-1.8-2.4c24.09-18,46-24.77,65.13-20.09,10.42,2.54,15.54,7.34,20.48,12,4.56,4.28,8.87,8.32,17.29,10.47,17.74,4.52,33.39-4.8,48.53-13.82,14.93-8.9,30.38-18.09,47.24-13,10.39,3.14,19.44,11.16,26.88,23.86a1.5,1.5,0,0,1-2.58,1.52c-7.06-12-15.52-19.6-25.17-22.51-15.6-4.71-29.8,3.75-44.84,12.71C394.21,603.22,381.07,611,366.38,611Z"></path></g></g><g id="_--------------" data-name="--------------"><rect class="cls-1" x="26.29" y="26.5" width="1" height="1"></rect></g><g id="hair_middle" style="opacity: 0;"><path class="hairstyle-192-cls-3" d="M363.72,115.54c0-25.08-21.21-100.06-47.79-100.06-19.53,0-67.73,147.13-67.73,161,0,25.07,21.55,75.4,48.14,75.4s48.13-50.33,48.13-75.4c0-5.57-1.05-13.6-3-22.72C354.86,145.72,363.72,131.61,363.72,115.54Z"></path><path class="hairstyle-192-cls-4" d="M406.84,14.41c-26.58,0-48.47,75-48.47,100.06,0,14.86,7.58,28.06,19.28,36.34-2.08,9.47-3.23,17.82-3.23,23.56,0,25.07,21.55,75.4,48.13,75.4s48.13-50.33,48.13-75.4C470.68,160.72,431.77,14.41,406.84,14.41Z"></path><path class="hairstyle-192-cls-5" d="M430.41,119c0,33.38-31.36,60.44-70.06,60.44S290.29,152.41,290.29,119,322.15-14.13,360.84-14.13,430.41,85.66,430.41,119Z"></path><path class="hairstyle-192-cls-6" d="M387.82,144.1h-.09a1.5,1.5,0,0,1-1.41-1.59c4-65.73-17.4-92.12-17.62-92.38a1.53,1.53,0,0,1-.21-1.6,1.51,1.51,0,0,1,1.36-.87h19.74C382.35,12.05,364-2.52,363.81-2.67a1.49,1.49,0,0,1-.27-2.1,1.5,1.5,0,0,1,2.1-.27c.81.63,20,15.81,27.25,53.92a1.5,1.5,0,0,1-1.48,1.78H372.79c5.28,8,20,35.55,16.53,92A1.5,1.5,0,0,1,387.82,144.1Z"></path></g><g id="face_color"><rect class="cls-1" x="433.29" y="376.82" width="1" height="1" style="fill: rgb(72, 167, 234);"></rect></g><g id="face"><rect class="cls-1" x="497.79" y="325" width="1" height="1"></rect><path class="cls-5" d="M467.33,205.48V196.1c0-25.49-13.6-58.54-35.67-71.28h0a143.28,143.28,0,0,0-143.32,0h0c-22.07,12.74-35.67,45.79-35.67,71.28v9.38a35,35,0,0,0,17.49,30.3l73.56,42.47a32.54,32.54,0,0,0,32.56,0l73.56-42.47A35,35,0,0,0,467.33,205.48Z"></path><g class="cls-8"><path class="cls-1" d="M467.33,205.48V196.1c0-25.49-13.6-58.54-35.67-71.28h0a143.28,143.28,0,0,0-143.32,0h0c-22.07,12.74-35.67,45.79-35.67,71.28v9.38a35,35,0,0,0,17.49,30.3l73.56,42.47a32.54,32.54,0,0,0,32.56,0l73.56-42.47A35,35,0,0,0,467.33,205.48Z"></path><path class="cls-1" d="M467.33,205.48V196.1c0-25.49-13.6-58.54-35.67-71.28h0a143.28,143.28,0,0,0-143.32,0h0c-22.07,12.74-35.67,45.79-35.67,71.28v9.38a35,35,0,0,0,17.49,30.3l73.56,42.47a32.54,32.54,0,0,0,32.56,0l73.56-42.47A35,35,0,0,0,467.33,205.48Z"></path><g class="cls-9"><path class="cls-6" d="M243.58,181.42s20.4-21.39,37-8.74C325.54,206.83,354,289.86,354,289.86L243.58,232.41Z"></path></g><g class="cls-9"><g class="cls-9"><path class="cls-6" d="M476.47,181.42s-20.39-21.39-37-8.74c-44.92,34.15-73.33,117.18-73.33,117.18l110.37-57.45Z"></path></g></g><path class="cls-6" d="M359.38,171.13c-5.79,0-11-3.61-12.64-8.68a333.18,333.18,0,0,0-24.51-60.74,5.55,5.55,0,0,1-.08-4.83,133.29,133.29,0,0,1,9.23-18.23c3.57-7.28,17.29-9.86,28-9.86s24.42,2.58,28,9.86a134.44,134.44,0,0,1,9.23,18.23,5.53,5.53,0,0,1-.08,4.82A333.07,333.07,0,0,0,372,162.4C370.33,167.51,365.15,171.08,359.38,171.13Zm0-99.34c-12.57,0-23,3.38-25.31,8.23l-.07.13A131.54,131.54,0,0,0,324.92,98a2.59,2.59,0,0,0,0,2.29,335.22,335.22,0,0,1,24.72,61.25c1.25,3.82,5.28,6.54,9.77,6.57s8.51-2.76,9.77-6.61a335.63,335.63,0,0,1,24.7-61.21,2.56,2.56,0,0,0,0-2.29,130.39,130.39,0,0,0-9.06-17.87l-.07-.13C382.35,75.17,371.94,71.79,359.36,71.79ZM332.7,79.37h0Z"></path></g><path d="M453.3,190.9a6.64,6.64,0,0,0-1.59-1c-7-3-26,6.2-32.65,21.63-.92,2.1-5.87,3.39-6.27,5.47l-12.66,20.38-9.93,22.56a42.94,42.94,0,0,1-60.55-.16l-9.53-21.22L308.79,218c-.39-2.3-5-2.67-6-5-6.69-15.43-27.47-26.12-34.44-23.1a6.25,6.25,0,0,0-1.64,1c-5.21,4.47-5,17.74.79,31.56v16.77h.19c0,.82,0,1.68.1,2.56v.94l.07.07c2.48,25.88,29.38,74.85,43.57,95a28.07,28.07,0,0,0,20.3,11.78l24.77.65h7l24.77-.65a28.07,28.07,0,0,0,20.3-11.78c14.88-21.12,43.71-73.91,43.74-98.57h.19V222.63C458.35,208.72,458.58,195.34,453.3,190.9Z"></path></g><g id="eyes_white"><rect class="cls-1" x="433.29" y="356.82" width="1" height="1"></rect></g><g id="eyes_color"><rect class="cls-1" x="51.79" y="91" width="1" height="1"></rect><path class="cls-4" d="M283.27,215.24l.12-1c.64-5.27,8.37-8.07,14-5.09,9.58,5,15.27,11.65,26.38,40.39.46,1.21-1.2,2.24-2.62,1.63-4.93-2.13-13.78-6.07-22-10.26C288.17,235.29,282,225.43,283.27,215.24Z"></path><path class="cls-4" d="M435.68,215l-.05-.39c-.67-5.51-8.72-8.5-14.54-5.33-9.24,5-14.91,11.89-25.68,40-.56,1.44,1.41,2.68,3.09,1.94,5-2.2,13.33-6,21.09-10C430.74,235.44,436.94,225.37,435.68,215Z"></path><path class="cls-4" d="M336.82,306.07H382.1c-4.41,5-11.82,8.06-19.74,8.06h-5.8c-7.81,0-15.12-2.94-19.55-7.86Z"></path></g><g id="eyes_lashes"><g class="cls-13"><path class="cls-14" d="M283.27,215.24l.12-1c.64-5.27,8.37-8.07,14-5.09,9.58,5,15.27,11.65,26.38,40.39.46,1.21-1.2,2.24-2.62,1.63-4.93-2.13-13.78-6.07-22-10.26C288.17,235.29,282,225.43,283.27,215.24Z"></path><path class="cls-15" d="M435.68,215l-.05-.39c-.67-5.51-8.72-8.5-14.54-5.33-9.24,5-14.91,11.89-25.68,40-.56,1.44,1.41,2.68,3.09,1.94,5-2.2,13.33-6,21.09-10C430.74,235.44,436.94,225.37,435.68,215Z"></path></g><path d="M383.45,276.08a2.11,2.11,0,0,1-.65-.11,2,2,0,0,1-1.24-2.54c.08-.25,8.67-25,28.35-55.94,21.4-33.59,40.51-27.2,41.31-26.91a2,2,0,0,1-1.34,3.77c-.24-.08-17.11-5.31-36.59,25.29s-27.87,54.84-28,55.09A2,2,0,0,1,383.45,276.08Z"></path><path d="M336.54,276.08a2,2,0,0,1-1.89-1.35c-.08-.25-8.53-24.62-27.94-55.09-19.53-30.66-36.43-25.35-36.6-25.29a2,2,0,0,1-1.34-3.77c.8-.29,19.92-6.68,41.31,26.91,19.68,30.91,28.27,55.69,28.36,55.94a2,2,0,0,1-1.25,2.54A2.06,2.06,0,0,1,336.54,276.08Z"></path></g><g id="makeup"><g id="makeup-226-НАКЛЕЙКА"><path class="makeup-226-cls-1" d="M452.5,241.55l-21,22.08-3.16-14.83-31.57,37,24.9-23.35,4.48,13.79,19.92-16.63A112.62,112.62,0,0,0,452.5,241.55Z"></path><path class="makeup-226-cls-2" d="M450.48,248.34l-23.72,23.35-3-14.86-34.48,37.75,27.07-23.88,4.48,13.79,20.76-16.38A95.06,95.06,0,0,0,450.48,248.34Z"></path></g></g><g id="hair_front" style="opacity: 0;"><g class="hairstyle-192-cls-7"><path class="hairstyle-192-cls-5" d="M430.41,119c0,33.38-31.36,60.44-70.06,60.44S290.29,152.41,290.29,119,322.15-14.13,360.84-14.13,430.41,85.66,430.41,119Z"></path><path class="hairstyle-192-cls-6" d="M387.82,144.1h-.09a1.5,1.5,0,0,1-1.41-1.59c4-65.73-17.4-92.12-17.62-92.38a1.53,1.53,0,0,1-.21-1.6,1.51,1.51,0,0,1,1.36-.87h19.74C382.35,12.05,364-2.52,363.81-2.67a1.49,1.49,0,0,1-.27-2.1,1.5,1.5,0,0,1,2.1-.27c.81.63,20,15.81,27.25,53.92a1.5,1.5,0,0,1-1.48,1.78H372.79c5.28,8,20,35.55,16.53,92A1.5,1.5,0,0,1,387.82,144.1Z"></path></g></g><g id="hat"><path class="hat-253-cls-2" d="M459.31,264.33c-21.37,40.46-70.85,62.38-99.31,62.48-29.49.11-81.38-23.46-101.41-66.66a111,111,0,0,0-18.45,61.35c0,63,52.6,74,117.5,74s117.5-11,117.5-74A110.93,110.93,0,0,0,459.31,264.33Z"></path><path class="hat-253-cls-3" d="M368.05,180.25c42.84,0,83.16,4.8,118.41,13.25C466.11,141.91,420.75,106,368.05,106S270,141.91,249.65,193.5C284.9,185.05,325.21,180.25,368.05,180.25Z"></path><path class="hat-253-cls-4" d="M238.83,385.86,250,376.58S232.5,349,245.64,349c0,0,1-110.92,17-113,0,0,23,86,106.72,94.18C398.14,333,458.64,325,476.64,308c0,0,10,50-1.67,72.45,0,0,27.44,22.41,19.71,37.87L355.27,438.65A217.43,217.43,0,0,1,270,434.38c-16-4.1-31.38-10-39.63-18.38C224.17,409.75,231.7,391,238.83,385.86Z"></path><path class="hat-253-cls-5" d="M499.43,255c1-34-1.89-37.57-4.94-44.15a176.75,176.75,0,0,1-11.88-34.57C472,130.3,430.74,94,381.41,94H338.79c-49.47,0-90.86,36.5-101.29,82.69a174.63,174.63,0,0,1-14.75,40.43c-2,3.89-4.11,14.88-4.11,28.88,0,10.26,5,88,5,88,0,35.61,20.26,66.07,45.3,88.8C260.14,400.5,255,373.18,255,341.22c0-97.67,51.28-218.73,106.47-218.73,43.09,0,83.49,79.67,99.13,161.09.81,5.09,1.68,10.18,2.61,15.11a345.8,345.8,0,0,1,4.22,52.15c0,25.68-3.55,47.92-9.78,66.74,20.71-22,39.76-50.73,39.76-82.24C497.43,335.34,499.2,263.08,499.43,255Z"></path><g class="hat-253-cls-6"><path class="hat-253-cls-7" d="M348.53,418.37c-25.94,0-56-4.4-77-14.52a1.5,1.5,0,1,1,1.3-2.7C300.2,414.35,343.42,417.61,372,414c19.73-2.35,32.6-8,46.23-14,16.21-7.15,33-14.54,62.36-16.47a1.5,1.5,0,0,1,.19,3c-28.85,1.88-45.37,9.17-61.34,16.22-13.84,6.1-26.91,11.87-47.08,14.27A193.27,193.27,0,0,1,348.53,418.37Z"></path></g><g class="hat-253-cls-6"><path class="hat-253-cls-7" d="M353.89,374.13c-19,0-38-3-53.53-11.69-19.77-11-31.78-29.76-35.71-55.72-3.85-25.48-3.75-26.05-1.21-40.71.39-2.25.84-4.84,1.34-7.91C275.91,190,313.45,150.43,315.8,148c1.58-2.37,20.13-29.27,47.27-28.26,21.17.78,41.41,18.35,60.15,52.23a1.5,1.5,0,0,1-2.62,1.45C402.41,140.55,383,123.5,363,122.75c-26.09-1-44.57,26.75-44.75,27a1.55,1.55,0,0,1-.19.24c-.39.39-39,39.57-50.3,108.56-.5,3.08-.95,5.68-1.34,7.94-2.52,14.48-2.56,14.75,1.22,39.76s15.28,43,34.2,53.54c56.7,31.6,162.61-13,163.67-13.48a1.5,1.5,0,0,1,1.18,2.76,378.2,378.2,0,0,1-61,18.91C390.36,371.34,372.1,374.13,353.89,374.13Z"></path></g></g><g id="glasses"><path class="glasses-161-cls-1" d="M291.26,192H260a14,14,0,0,0-13.94,13.15c-.06,1-.1,2-.1,3.07h0a49,49,0,0,0,33.16,46.35,39.1,39.1,0,0,0,23.09.54c14.22-4,45.41-22.6,58.14-22.61,12.88,0,44.55,18.71,58.83,22.65a38.72,38.72,0,0,0,21.76-.17,49,49,0,0,0,34.4-46.76h0c0-1,0-2.06-.1-3.07A14,14,0,0,0,461.3,192h-170Z"></path><path class="glasses-161-cls-2" d="M429.91,258.61a42.45,42.45,0,0,1-11.26-1.55c-5.89-1.63-14.47-5.61-23.55-9.83-12.87-6-27.47-12.75-34.75-12.75h0c-7.16,0-21.5,6.73-34.16,12.66-9,4.24-17.56,8.24-23.45,9.88a41,41,0,0,1-24.25-.57A50.94,50.94,0,0,1,244,208.22c0-.92,0-1.84.07-2.75A16.34,16.34,0,0,1,260.37,190H460.91a16.33,16.33,0,0,1,16.32,15.45c0,.91.08,1.83.08,2.75a50.72,50.72,0,0,1-35.79,48.65A39.11,39.11,0,0,1,429.91,258.61Zm-69.56-28.09c8.16,0,22.53,6.67,36.42,13.12,8.93,4.15,17.36,8.07,22.93,9.6a36.57,36.57,0,0,0,20.64-.15,46.77,46.77,0,0,0,33-44.87v-.15A14.28,14.28,0,0,0,459,194H262.3a14.29,14.29,0,0,0-14.37,14.09v.15a47,47,0,0,0,31.82,44.48,37,37,0,0,0,21.92.51c5.57-1.55,13.95-5.49,22.83-9.65,13.66-6.41,27.8-13,35.83-13Z"></path></g><g id="_-------------" data-name="-------------"><rect class="cls-1" x="56.64" y="679" width="1" height="1"></rect></g><g id="frame"><rect class="cls-1" x="666.66" y="104" width="1" height="1"></rect></g></g></svg>